<?xml version="1.0" standalone="no"?>
 <!DOCTYPE svg PUBLIC "-//W3C//DTD SVG 1.1//EN" 
 "http://www.w3.org/Graphics/SVG/1.1/DTD/svg11.dtd"> 
<svg xmlns="http://www.w3.org/2000/svg" version="1.1" 
    width="5.22478cm" height="5.207cm" viewBox="0 0 20570 20500 ">
<title>SVG Picture created as uselessbots v0-B.Cu.svg date 2016/05/11 01:30:23 </title>
  <desc>Picture generated by PCBNEW </desc>
<g style="fill:#000000; fill-opacity:1;stroke:#000000; stroke-opacity:1;
stroke-linecap:round; stroke-linejoin:round; "
 transform="translate(0 0) scale(1 1)">
</g>
<g style="fill:#000000; fill-opacity:0.0; 
stroke:#000000; stroke-width:-0.000393701; stroke-opacity:1; 
stroke-linecap:round; stroke-linejoin:round;">
</g>
<g style="fill:#000000; fill-opacity:0.0; 
stroke:#000000; stroke-width:118.11; stroke-opacity:1; 
stroke-linecap:round; stroke-linejoin:round;">
<path d="M9416 1806
L9416 1215
L9191 1215
L9135 1244
L9107 1272
L9079 1328
L9079 1412
L9107 1469
L9135 1497
L9191 1525
L9416 1525
" />
<path d="M8742 1806
L8798 1778
L8826 1750
L8854 1694
L8854 1525
L8826 1469
L8798 1440
L8742 1412
L8657 1412
L8601 1440
L8573 1469
L8545 1525
L8545 1694
L8573 1750
L8601 1778
L8657 1806
L8742 1806
" />
<path d="M8038 1412
L8038 1890
L8067 1947
L8095 1975
L8151 2003
L8235 2003
L8292 1975
" />
<path d="M8038 1778
L8095 1806
L8207 1806
L8263 1778
L8292 1750
L8320 1694
L8320 1525
L8292 1469
L8263 1440
L8207 1412
L8095 1412
L8038 1440
" />
<path d="M7673 1806
L7729 1778
L7757 1750
L7785 1694
L7785 1525
L7757 1469
L7729 1440
L7673 1412
L7589 1412
L7532 1440
L7504 1469
L7476 1525
L7476 1694
L7504 1750
L7532 1778
L7589 1806
L7673 1806
" />
<path d="M7223 1806
L7223 1412
" />
<path d="M7223 1525
L7195 1469
L7167 1440
L7110 1412
L7054 1412
" />
<path d="M6632 1778
L6689 1806
L6801 1806
L6857 1778
L6886 1722
L6886 1497
L6857 1440
L6801 1412
L6689 1412
L6632 1440
L6604 1497
L6604 1553
L6886 1609
" />
<path d="M6098 1806
L6098 1497
L6126 1440
L6182 1412
L6295 1412
L6351 1440
" />
<path d="M6098 1778
L6154 1806
L6295 1806
L6351 1778
L6379 1722
L6379 1665
L6351 1609
L6295 1581
L6154 1581
L6098 1553
" />
<path d="M5817 1412
L5817 1806
" />
<path d="M5817 1469
L5789 1440
L5733 1412
L5648 1412
L5592 1440
L5564 1497
L5564 1806
" />
<path d="M5029 1412
L5029 1806
" />
<path d="M5283 1412
L5283 1722
L5254 1778
L5198 1806
L5114 1806
L5058 1778
L5029 1750
" />
<path d="M3961 1806
L4158 1525
" />
<path d="M4298 1806
L4298 1215
L4073 1215
L4017 1244
L3989 1272
L3961 1328
L3961 1412
L3989 1469
L4017 1497
L4073 1525
L4298 1525
" />
<path d="M3455 1806
L3455 1497
L3483 1440
L3539 1412
L3652 1412
L3708 1440
" />
<path d="M3455 1778
L3511 1806
L3652 1806
L3708 1778
L3736 1722
L3736 1665
L3708 1609
L3652 1581
L3511 1581
L3455 1553
" />
<path d="M3173 1806
L3173 1412
" />
<path d="M3173 1525
L3145 1469
L3117 1440
L3061 1412
L3005 1412
" />
<path d="M2583 1778
L2639 1806
L2752 1806
L2808 1778
L2836 1722
L2836 1497
L2808 1440
L2752 1412
L2639 1412
L2583 1440
L2555 1497
L2555 1553
L2836 1609
" />
<path d="M2330 1778
L2274 1806
L2161 1806
L2105 1778
L2077 1722
L2077 1694
L2105 1637
L2161 1609
L2245 1609
L2302 1581
L2330 1525
L2330 1497
L2302 1440
L2245 1412
L2161 1412
L2105 1440
" />
<path d="M8081 2160
L7743 2160
" />
<path d="M7912 2751
L7912 2160
" />
<path d="M7574 2582
L7293 2582
" />
<path d="M7631 2751
L7434 2160
L7237 2751
" />
<path d="M7040 2751
L7040 2160
L6703 2751
L6703 2160
" />
<path d="M6422 2751
L6422 2160
" />
<path d="M6084 2751
L6337 2413
" />
<path d="M6084 2160
L6422 2498
" />
<path d="M5831 2695
L5803 2723
L5831 2751
L5859 2723
L5831 2695
L5831 2751
" />
<path d="M5831 2526
L5859 2188
L5831 2160
L5803 2188
L5831 2526
L5831 2160
" />
<path d="M5156 2357
L5015 2751
L4875 2357
" />
<path d="M4537 2160
L4481 2160
L4425 2188
L4397 2217
L4369 2273
L4341 2385
L4341 2526
L4369 2638
L4397 2695
L4425 2723
L4481 2751
L4537 2751
L4594 2723
L4622 2695
L4650 2638
L4678 2526
L4678 2385
L4650 2273
L4622 2217
L4594 2188
L4537 2160
" />
<path d="M4087 2695
L4059 2723
L4087 2751
L4116 2723
L4087 2695
L4087 2751
" />
<path d="M3553 2160
L3666 2160
L3722 2188
L3750 2217
L3806 2301
L3834 2413
L3834 2638
L3806 2695
L3778 2723
L3722 2751
L3609 2751
L3553 2723
L3525 2695
L3497 2638
L3497 2498
L3525 2442
L3553 2413
L3609 2385
L3722 2385
L3778 2413
L3806 2442
L3834 2498
" />
</g>
<g style="fill:#000000; fill-opacity:0.0; 
stroke:#000000; stroke-width:59.0551; stroke-opacity:1; 
stroke-linecap:round; stroke-linejoin:round;">
<path d="M1011 19761
L1011 261
" />
<path d="M20511 19761
L1011 19761
" />
<path d="M20511 261
L20511 19761
" />
<path d="M1011 261
L20511 261
" />
</g>
<g style="fill:#000000; fill-opacity:0.0; 
stroke:#000000; stroke-width:0; stroke-opacity:1; 
stroke-linecap:round; stroke-linejoin:round;">
</g>
<g style="fill:#000000; fill-opacity:1.0; 
stroke:#000000; stroke-width:0; stroke-opacity:1; 
stroke-linecap:round; stroke-linejoin:round;">
<polyline style="fill-rule:evenodd;"
points="9351,3861
9351,4661
8671,4661
8671,3861
9351,3861
" /> 
</g>
<g style="fill:#000000; fill-opacity:1.0; 
stroke:#000000; stroke-width:680; stroke-opacity:1; 
stroke-linecap:round; stroke-linejoin:round;">
</g>
<g style="fill:#000000; fill-opacity:0.0; 
stroke:#000000; stroke-width:680; stroke-opacity:1; 
stroke-linecap:round; stroke-linejoin:round;">
<path d="M8011 4321
L8011 4201
" />
<path d="M7011 4321
L7011 4201
" />
<path d="M6011 4321
L6011 4201
" />
<path d="M5011 4321
L5011 4201
" />
<path d="M4011 4321
L4011 4201
" />
<path d="M3011 4321
L3011 4201
" />
<path d="M2011 4321
L2011 4201
" />
</g>
<g style="fill:#000000; fill-opacity:0.0; 
stroke:#000000; stroke-width:0; stroke-opacity:1; 
stroke-linecap:round; stroke-linejoin:round;">
</g>
<g style="fill:#000000; fill-opacity:1.0; 
stroke:#000000; stroke-width:0; stroke-opacity:1; 
stroke-linecap:round; stroke-linejoin:round;">
<polyline style="fill-rule:evenodd;"
points="19003,1769
19003,2753
18019,2753
18019,1769
19003,1769
" /> 
<circle cx="16542.7" cy="2261.81" r="492.126" /> 
</g>
<g style="fill:#000000; fill-opacity:1.0; 
stroke:#000000; stroke-width:39.3701; stroke-opacity:1; 
stroke-linecap:round; stroke-linejoin:round;">
</g>
<g style="fill:#000000; fill-opacity:1.0; 
stroke:#000000; stroke-width:0; stroke-opacity:1; 
stroke-linecap:round; stroke-linejoin:round;">
<polyline style="fill-rule:evenodd;"
points="15759,17072
15759,18450
14381,18450
14381,17072
15759,17072
" /> 
<polyline style="fill-rule:evenodd;"
points="18121,17072
18121,18450
16743,18450
16743,17072
18121,17072
" /> 
<polyline style="fill-rule:evenodd;"
points="16940,15222
16940,16600
15562,16600
15562,15222
16940,15222
" /> 
<polyline style="fill-rule:evenodd;"
points="10351,7101
9671,7101
9671,6421
10351,6421
10351,7101
" /> 
</g>
<g style="fill:#000000; fill-opacity:1.0; 
stroke:#000000; stroke-width:680; stroke-opacity:1; 
stroke-linecap:round; stroke-linejoin:round;">
</g>
<g style="fill:#000000; fill-opacity:0.0; 
stroke:#000000; stroke-width:680; stroke-opacity:1; 
stroke-linecap:round; stroke-linejoin:round;">
<path d="M10011 5761
L10011 5761
" />
<path d="M11011 6761
L11011 6761
" />
<path d="M11011 5761
L11011 5761
" />
<path d="M12011 6761
L12011 6761
" />
<path d="M12011 5761
L12011 5761
" />
</g>
<g style="fill:#000000; fill-opacity:0.0; 
stroke:#000000; stroke-width:0; stroke-opacity:1; 
stroke-linecap:round; stroke-linejoin:round;">
</g>
<g style="fill:#000000; fill-opacity:1.0; 
stroke:#000000; stroke-width:0; stroke-opacity:1; 
stroke-linecap:round; stroke-linejoin:round;">
<polyline style="fill-rule:evenodd;"
points="14135,13405
13387,13405
13387,12618
14135,12618
14135,13405
" /> 
<circle cx="14761.2" cy="13011.8" r="374.016" /> 
</g>
<g style="fill:#000000; fill-opacity:1.0; 
stroke:#000000; stroke-width:39.3701; stroke-opacity:1; 
stroke-linecap:round; stroke-linejoin:round;">
</g>
<g style="fill:#000000; fill-opacity:1.0; 
stroke:#000000; stroke-width:0; stroke-opacity:1; 
stroke-linecap:round; stroke-linejoin:round;">
<polyline style="fill-rule:evenodd;"
points="9611,16601
9611,15921
10411,15921
10411,16601
9611,16601
" /> 
</g>
<g style="fill:#000000; fill-opacity:1.0; 
stroke:#000000; stroke-width:680; stroke-opacity:1; 
stroke-linecap:round; stroke-linejoin:round;">
</g>
<g style="fill:#000000; fill-opacity:0.0; 
stroke:#000000; stroke-width:680; stroke-opacity:1; 
stroke-linecap:round; stroke-linejoin:round;">
<path d="M9951 17261
L10071 17261
" />
<path d="M9951 18261
L10071 18261
" />
</g>
<g style="fill:#000000; fill-opacity:0.0; 
stroke:#000000; stroke-width:0; stroke-opacity:1; 
stroke-linecap:round; stroke-linejoin:round;">
</g>
<g style="fill:#000000; fill-opacity:1.0; 
stroke:#000000; stroke-width:0; stroke-opacity:1; 
stroke-linecap:round; stroke-linejoin:round;">
<polyline style="fill-rule:evenodd;"
points="10611,16601
10611,15921
11411,15921
11411,16601
10611,16601
" /> 
</g>
<g style="fill:#000000; fill-opacity:1.0; 
stroke:#000000; stroke-width:680; stroke-opacity:1; 
stroke-linecap:round; stroke-linejoin:round;">
</g>
<g style="fill:#000000; fill-opacity:0.0; 
stroke:#000000; stroke-width:680; stroke-opacity:1; 
stroke-linecap:round; stroke-linejoin:round;">
<path d="M10951 17261
L11071 17261
" />
<path d="M10951 18261
L11071 18261
" />
</g>
<g style="fill:#000000; fill-opacity:0.0; 
stroke:#000000; stroke-width:0; stroke-opacity:1; 
stroke-linecap:round; stroke-linejoin:round;">
</g>
<g style="fill:#000000; fill-opacity:1.0; 
stroke:#000000; stroke-width:0; stroke-opacity:1; 
stroke-linecap:round; stroke-linejoin:round;">
<polyline style="fill-rule:evenodd;"
points="11611,16601
11611,15921
12411,15921
12411,16601
11611,16601
" /> 
</g>
<g style="fill:#000000; fill-opacity:1.0; 
stroke:#000000; stroke-width:680; stroke-opacity:1; 
stroke-linecap:round; stroke-linejoin:round;">
</g>
<g style="fill:#000000; fill-opacity:0.0; 
stroke:#000000; stroke-width:680; stroke-opacity:1; 
stroke-linecap:round; stroke-linejoin:round;">
<path d="M11951 17261
L12071 17261
" />
<path d="M11951 18261
L12071 18261
" />
</g>
<g style="fill:#000000; fill-opacity:0.0; 
stroke:#000000; stroke-width:0; stroke-opacity:1; 
stroke-linecap:round; stroke-linejoin:round;">
</g>
<g style="fill:#000000; fill-opacity:1.0; 
stroke:#000000; stroke-width:0; stroke-opacity:1; 
stroke-linecap:round; stroke-linejoin:round;">
<polyline style="fill-rule:evenodd;"
points="1671,16161
1671,15361
2351,15361
2351,16161
1671,16161
" /> 
</g>
<g style="fill:#000000; fill-opacity:1.0; 
stroke:#000000; stroke-width:680; stroke-opacity:1; 
stroke-linecap:round; stroke-linejoin:round;">
</g>
<g style="fill:#000000; fill-opacity:0.0; 
stroke:#000000; stroke-width:680; stroke-opacity:1; 
stroke-linecap:round; stroke-linejoin:round;">
<path d="M3011 15701
L3011 15821
" />
<path d="M4011 15701
L4011 15821
" />
<path d="M5011 15701
L5011 15821
" />
<path d="M6011 15701
L6011 15821
" />
<path d="M7011 15701
L7011 15821
" />
</g>
<g style="fill:#000000; fill-opacity:0.0; 
stroke:#000000; stroke-width:0; stroke-opacity:1; 
stroke-linecap:round; stroke-linejoin:round;">
</g>
<g style="fill:#000000; fill-opacity:1.0; 
stroke:#000000; stroke-width:0; stroke-opacity:1; 
stroke-linecap:round; stroke-linejoin:round;">
<polyline style="fill-rule:evenodd;"
points="15003,1769
15003,2753
14019,2753
14019,1769
15003,1769
" /> 
<circle cx="12542.7" cy="2261.81" r="492.126" /> 
</g>
<g style="fill:#000000; fill-opacity:1.0; 
stroke:#000000; stroke-width:39.3701; stroke-opacity:1; 
stroke-linecap:round; stroke-linejoin:round;">
</g>
<g style="fill:#000000; fill-opacity:1.0; 
stroke:#000000; stroke-width:0; stroke-opacity:1; 
stroke-linecap:round; stroke-linejoin:round;">
<polyline style="fill-rule:evenodd;"
points="2671,7921
3351,7921
3351,8601
2671,8601
2671,7921
" /> 
</g>
<g style="fill:#000000; fill-opacity:1.0; 
stroke:#000000; stroke-width:680; stroke-opacity:1; 
stroke-linecap:round; stroke-linejoin:round;">
</g>
<g style="fill:#000000; fill-opacity:0.0; 
stroke:#000000; stroke-width:680; stroke-opacity:1; 
stroke-linecap:round; stroke-linejoin:round;">
<path d="M2011 8261
L2011 8261
" />
<path d="M3011 9261
L3011 9261
" />
<path d="M2011 9261
L2011 9261
" />
<path d="M3011 10261
L3011 10261
" />
<path d="M2011 10261
L2011 10261
" />
<path d="M3011 11261
L3011 11261
" />
<path d="M2011 11261
L2011 11261
" />
</g>
<g style="fill:#000000; fill-opacity:1.0; 
stroke:#000000; stroke-width:0; stroke-opacity:1; 
stroke-linecap:round; stroke-linejoin:round;">
<circle cx="19511.2" cy="9011.81" r="118.11" /> 
</g>
<g style="fill:#000000; fill-opacity:1.0; 
stroke:#000000; stroke-width:39.3701; stroke-opacity:1; 
stroke-linecap:round; stroke-linejoin:round;">
</g>
<g style="fill:#000000; fill-opacity:1.0; 
stroke:#000000; stroke-width:0; stroke-opacity:1; 
stroke-linecap:round; stroke-linejoin:round;">
<circle cx="16761.2" cy="9011.81" r="118.11" /> 
</g>
<g style="fill:#000000; fill-opacity:1.0; 
stroke:#000000; stroke-width:39.3701; stroke-opacity:1; 
stroke-linecap:round; stroke-linejoin:round;">
</g>
<g style="fill:#000000; fill-opacity:1.0; 
stroke:#000000; stroke-width:0; stroke-opacity:1; 
stroke-linecap:round; stroke-linejoin:round;">
<circle cx="8511.15" cy="5761.81" r="118.11" /> 
</g>
<g style="fill:#000000; fill-opacity:1.0; 
stroke:#000000; stroke-width:39.3701; stroke-opacity:1; 
stroke-linecap:round; stroke-linejoin:round;">
</g>
<g style="fill:#000000; fill-opacity:1.0; 
stroke:#000000; stroke-width:0; stroke-opacity:1; 
stroke-linecap:round; stroke-linejoin:round;">
<circle cx="8538.71" cy="13234.3" r="118.11" /> 
</g>
<g style="fill:#000000; fill-opacity:1.0; 
stroke:#000000; stroke-width:39.3701; stroke-opacity:1; 
stroke-linecap:round; stroke-linejoin:round;">
</g>
<g style="fill:#000000; fill-opacity:1.0; 
stroke:#000000; stroke-width:0; stroke-opacity:1; 
stroke-linecap:round; stroke-linejoin:round;">
<circle cx="10761.2" cy="14011.8" r="118.11" /> 
</g>
<g style="fill:#000000; fill-opacity:1.0; 
stroke:#000000; stroke-width:39.3701; stroke-opacity:1; 
stroke-linecap:round; stroke-linejoin:round;">
</g>
<g style="fill:#000000; fill-opacity:1.0; 
stroke:#000000; stroke-width:0; stroke-opacity:1; 
stroke-linecap:round; stroke-linejoin:round;">
<circle cx="12761.2" cy="11511.8" r="118.11" /> 
</g>
<g style="fill:#000000; fill-opacity:1.0; 
stroke:#000000; stroke-width:39.3701; stroke-opacity:1; 
stroke-linecap:round; stroke-linejoin:round;">
</g>
<g style="fill:#000000; fill-opacity:1.0; 
stroke:#000000; stroke-width:393.701; stroke-opacity:1; 
stroke-linecap:round; stroke-linejoin:round;">
</g>
<g style="fill:#000000; fill-opacity:0.0; 
stroke:#000000; stroke-width:393.701; stroke-opacity:1; 
stroke-linecap:round; stroke-linejoin:round;">
<path d="M9761 8511
L9761 10011
" />
<path d="M9761 10011
L10511 10761
" />
<path d="M8261 9261
L7511 8511
" />
<path d="M8261 10761
L8261 9261
" />
<path d="M9011 8511
L9011 10761
" />
</g>
<g style="fill:#000000; fill-opacity:0.0; 
stroke:#000000; stroke-width:98.4252; stroke-opacity:1; 
stroke-linecap:round; stroke-linejoin:round;">
<path d="M16761 9011
L19511 9011
" />
<path d="M10511 4761
L10011 5261
" />
<path d="M10011 5261
L10011 5761
" />
<path d="M12761 11511
L12761 10011
" />
<path d="M12761 10011
L13511 9261
" />
<path d="M13511 9261
L13511 5511
" />
<path d="M13511 5511
L12761 4761
" />
<path d="M12761 4761
L10511 4761
" />
</g>
<g style="fill:#000000; fill-opacity:1.0; 
stroke:#000000; stroke-width:100; stroke-opacity:1; 
stroke-linecap:round; stroke-linejoin:round;">
<polyline style="fill-rule:evenodd;"
points="20231,19482
1290,19482
1290,18403
9378,18403
9379,18409
9479,18616
9651,18770
9868,18846
9961,18789
9961,18311
10061,18311
10061,18789
10153,18846
10371,18770
10511,18645
10651,18770
10868,18846
10961,18789
10961,18311
11061,18311
11061,18789
11153,18846
11371,18770
11511,18645
11651,18770
11868,18846
11961,18789
11961,18311
12061,18311
12061,18789
12153,18846
12371,18770
12542,18616
12642,18409
12643,18403
12596,18311
12061,18311
11961,18311
11061,18311
10961,18311
10061,18311
9961,18311
9426,18311
9378,18403
1290,18403
1290,17261
9348,17261
9393,17487
9521,17679
9643,17760
9479,17906
9379,18114
9378,18120
9426,18211
9961,18211
9961,18203
10061,18203
10061,18211
10961,18211
10961,18203
11061,18203
11061,18211
11961,18211
11961,18203
12061,18203
12061,18211
12596,18211
12643,18120
12642,18114
12542,17906
12379,17760
12501,17679
12628,17487
12673,17261
12636,17072
14126,17072
14126,18450
14143,18543
14198,18628
14281,18685
14381,18705
15759,18705
15851,18688
15936,18633
15993,18549
16014,18450
16014,17874
16493,17874
16493,18500
16531,18592
16601,18662
16693,18700
17319,18700
17382,18638
17382,17811
17482,17811
17482,18638
17544,18700
18170,18700
18262,18662
18333,18592
18371,18500
18371,17874
18308,17811
17482,17811
17382,17811
16555,17811
16493,17874
16014,17874
16014,17072
15996,16980
15941,16895
15877,16850
16138,16850
16201,16788
16201,15961
16301,15961
16301,16788
16363,16850
16625,16850
16601,16860
16531,16931
16493,17023
16493,17649
16555,17711
17382,17711
17382,16885
17482,16885
17482,17711
18308,17711
18371,17649
18371,17023
18333,16931
18262,16860
18170,16822
17544,16822
17482,16885
17382,16885
17319,16822
17057,16822
17081,16812
17152,16742
17190,16650
17190,16024
17127,15961
16301,15961
16201,15961
15374,15961
15312,16024
15312,16650
15350,16742
15420,16812
15433,16817
14381,16817
14288,16835
14203,16890
14146,16973
14126,17072
12636,17072
12628,17036
12501,16844
12495,16840
12503,16839
12588,16784
12645,16700
12666,16601
12666,15921
12648,15829
12593,15744
12510,15686
12411,15666
11611,15666
11518,15684
11512,15688
11510,15686
11411,15666
10611,15666
10518,15684
10512,15688
10510,15686
10411,15666
9611,15666
9518,15684
9433,15739
9376,15822
9356,15921
9356,16601
9373,16694
9428,16779
9511,16836
9528,16839
9521,16844
9393,17036
9348,17261
1290,17261
1290,15874
1421,15874
1421,16211
1459,16303
1529,16373
1621,16411
1898,16411
1961,16349
1961,15811
1483,15811
1421,15874
1290,15874
1290,15312
1421,15312
1421,15649
1483,15711
1961,15711
1961,15174
2061,15174
2061,15711
2069,15711
2069,15811
2061,15811
2061,16349
2123,16411
2400,16411
2492,16373
2563,16303
2588,16243
2593,16251
2785,16379
3011,16424
3236,16379
3428,16251
3511,16127
3593,16251
3785,16379
4011,16424
4236,16379
4428,16251
4511,16127
4593,16251
4785,16379
5011,16424
5236,16379
5428,16251
5511,16127
5593,16251
5785,16379
6011,16424
6236,16379
6428,16251
6511,16127
6593,16251
6785,16379
7011,16424
7236,16379
7428,16251
7556,16060
7601,15834
7601,15689
7556,15463
7428,15271
7280,15173
15312,15173
15312,15799
15374,15861
16201,15861
16201,15035
16301,15035
16301,15861
17127,15861
17190,15799
17190,15173
17152,15081
17081,15010
16989,14972
16363,14972
16301,15035
16201,15035
16138,14972
15512,14972
15420,15010
15350,15081
15312,15173
7280,15173
7236,15143
7011,15099
6785,15143
6593,15271
6511,15395
6428,15271
6236,15143
6011,15099
5785,15143
5593,15271
5511,15395
5428,15271
5236,15143
5011,15099
4785,15143
4593,15271
4511,15395
4428,15271
4236,15143
4011,15099
3785,15143
3593,15271
3511,15395
3428,15271
3236,15143
3011,15099
2785,15143
2593,15271
2588,15280
2563,15220
2492,15149
2400,15111
2123,15111
2061,15174
1961,15174
1898,15111
1621,15111
1529,15149
1459,15220
1421,15312
1290,15312
1290,12618
13132,12618
13132,13405
13149,13498
13204,13583
13287,13640
13387,13660
14135,13660
14227,13642
14312,13588
14369,13504
14377,13465
14392,13451
14428,13554
14661,13640
14909,13630
15093,13554
15129,13451
14761,13082
14755,13088
14684,13017
14690,13011
14831,13011
15200,13380
15303,13344
15389,13111
15379,12863
15303,12679
15200,12643
14831,13011
14690,13011
14684,13006
14755,12935
14761,12941
15129,12572
15093,12469
14860,12383
14612,12393
14428,12469
14392,12572
14378,12558
14372,12525
14317,12440
14234,12383
14135,12363
13387,12363
13294,12380
13209,12435
13152,12518
13132,12618
1290,12618
1290,9250
1421,9250
1421,9273
1466,9499
1593,9690
1700,9761
1593,9833
1466,10024
1421,10250
1421,10273
1466,10499
1593,10690
1700,10761
1593,10833
1466,11024
1421,11250
1421,11273
1466,11499
1593,11690
1785,11818
2011,11863
2236,11818
2428,11690
2511,11566
2593,11690
2785,11818
3011,11863
3236,11818
3428,11690
3556,11499
3601,11273
3601,11250
3556,11024
3428,10833
3321,10761
3428,10690
3556,10499
3601,10273
3601,10250
3556,10024
3428,9833
3321,9761
3428,9690
3556,9499
3601,9273
3601,9250
3556,9024
3433,8841
3443,8839
3528,8784
3585,8700
3606,8601
3606,8511
7064,8511
7098,8682
7195,8827
7814,9446
7814,10761
7848,10932
7945,11077
8090,11174
8261,11208
8432,11174
8577,11077
8636,10989
8695,11077
8840,11174
9011,11208
9182,11174
9327,11077
9423,10932
9458,10761
9458,10340
10195,11077
10340,11174
10511,11208
10682,11174
10827,11077
10923,10932
10958,10761
10923,10590
10827,10445
10208,9826
10208,8511
10173,8340
10077,8195
9932,8098
9761,8064
9590,8098
9445,8195
9386,8284
9327,8195
9182,8098
9011,8064
8840,8098
8695,8195
8598,8340
8564,8511
8564,8933
7827,8195
7682,8098
7511,8064
7340,8098
7195,8195
7098,8340
7064,8511
3606,8511
3606,7921
3588,7829
3533,7744
3450,7686
3351,7666
2671,7666
2578,7684
2493,7739
2436,7822
2428,7859
2316,7756
2152,7688
2061,7736
2061,8211
2069,8211
2069,8311
2061,8311
2061,8319
1961,8319
1961,8311
1485,8311
1438,8403
1536,8611
1700,8761
1593,8833
1466,9024
1421,9250
1290,9250
1290,8120
1438,8120
1485,8211
1961,8211
1961,7736
1869,7688
1706,7756
1536,7912
1438,8120
1290,8120
1290,6421
9416,6421
9416,7101
9433,7194
9488,7279
9571,7336
9671,7356
10351,7356
10443,7339
10528,7284
10585,7200
10589,7183
10593,7190
10785,7318
11011,7363
11236,7318
11428,7190
11511,7066
11593,7190
11785,7318
12011,7363
12236,7318
12428,7190
12556,6999
12601,6773
12601,6750
12556,6524
12428,6333
12321,6261
12486,6111
12583,5903
12536,5811
12061,5811
12061,5819
11961,5819
11961,5811
11953,5811
11953,5711
11961,5711
11961,5236
12061,5236
12061,5711
12536,5711
12583,5620
12486,5412
12316,5256
12152,5188
12061,5236
11961,5236
11869,5188
11706,5256
11536,5412
11513,5460
11428,5333
11236,5205
11011,5160
10785,5205
10593,5333
10511,5456
10428,5333
10389,5306
10635,5061
12637,5061
13211,5635
13211,9137
12549,9800
12484,9897
12461,10011
12461,11290
12449,11303
12393,11438
12392,11584
12448,11720
12552,11823
12687,11879
12834,11879
12969,11824
13073,11720
13129,11585
13129,11438
13073,11303
13060,11290
13060,10135
13722,9473
13787,9376
13810,9261
13810,9084
16392,9084
16448,9220
16552,9323
16687,9379
16834,9379
16969,9324
16982,9311
19289,9311
19302,9323
19437,9379
19584,9379
19719,9324
19823,9220
19879,9085
19879,8938
19823,8803
19719,8699
19584,8643
19438,8643
19302,8699
19289,8712
16982,8712
16969,8699
16834,8643
16688,8643
16552,8699
16449,8803
16393,8938
16392,9084
13810,9084
13810,5511
13787,5397
13722,5300
12972,4550
12875,4485
12761,4462
10511,4462
10396,4485
10299,4550
9799,5050
9734,5147
9713,5253
9593,5333
9466,5524
9421,5750
9421,5773
9466,5999
9588,6182
9578,6184
9493,6239
9436,6322
9416,6421
1290,6421
1290,4189
1421,4189
1421,4334
1466,4560
1593,4751
1785,4879
2011,4924
2236,4879
2428,4751
2511,4627
2593,4751
2785,4879
3011,4924
3236,4879
3428,4751
3511,4627
3593,4751
3785,4879
4011,4924
4236,4879
4428,4751
4511,4627
4593,4751
4785,4879
5011,4924
5236,4879
5428,4751
5511,4627
5593,4751
5785,4879
6011,4924
6236,4879
6428,4751
6511,4627
6593,4751
6785,4879
7011,4924
7236,4879
7428,4751
7511,4627
7593,4751
7785,4879
8011,4924
8236,4879
8428,4751
8432,4746
8433,4754
8488,4839
8571,4896
8671,4916
9351,4916
9443,4899
9528,4844
9585,4760
9606,4661
9606,3861
9588,3769
9533,3684
9450,3626
9351,3606
8671,3606
8578,3624
8493,3679
8436,3762
8433,3778
8428,3771
8236,3643
8011,3599
7785,3643
7593,3771
7511,3895
7428,3771
7236,3643
7011,3599
6785,3643
6593,3771
6511,3895
6428,3771
6236,3643
6011,3599
5785,3643
5593,3771
5511,3895
5428,3771
5236,3643
5011,3599
4785,3643
4593,3771
4511,3895
4428,3771
4236,3643
4011,3599
3785,3643
3593,3771
3511,3895
3428,3771
3236,3643
3011,3599
2785,3643
2593,3771
2511,3895
2428,3771
2236,3643
2011,3599
1785,3643
1593,3771
1466,3963
1421,4189
1290,4189
1290,698
1655,698
1655,3206
9866,3206
9866,2408
11800,2408
11913,2681
12121,2890
12394,3003
12689,3004
12962,2891
13171,2682
13284,2410
13284,2114
13172,1841
13099,1769
13764,1769
13764,2753
13781,2846
13836,2931
13919,2988
14019,3008
15003,3008
15095,2991
15181,2936
15238,2853
15258,2753
15258,2408
15800,2408
15913,2681
16121,2890
16394,3003
16689,3004
16962,2891
17171,2682
17284,2410
17284,2114
17172,1841
17099,1769
17764,1769
17764,2753
17781,2846
17836,2931
17919,2988
18019,3008
19003,3008
19095,2991
19181,2936
19238,2853
19258,2753
19258,1769
19240,1677
19185,1591
19102,1534
19003,1514
18019,1514
17926,1532
17841,1586
17784,1670
17764,1769
17099,1769
16963,1633
16690,1519
16395,1519
16122,1632
15913,1840
15800,2113
15800,2408
15258,2408
15258,1769
15240,1677
15185,1591
15102,1534
15003,1514
14019,1514
13926,1532
13841,1586
13784,1670
13764,1769
13099,1769
12963,1633
12690,1519
12395,1519
12122,1632
11913,1840
11800,2113
11800,2408
9866,2408
9866,698
1655,698
1290,698
1290,541
20231,541
20231,19482
" /> 
</g>
<g style="fill:#FFFFFF; fill-opacity:1.0; 
stroke:#FFFFFF; stroke-width:100; stroke-opacity:1; 
stroke-linecap:round; stroke-linejoin:round;">
</g>
<g style="fill:#FFFFFF; fill-opacity:1.0; 
stroke:#FFFFFF; stroke-width:0; stroke-opacity:1; 
stroke-linecap:round; stroke-linejoin:round;">
<circle cx="19511.2" cy="9011.81" r="78.7402" /> 
</g>
<g style="fill:#FFFFFF; fill-opacity:1.0; 
stroke:#FFFFFF; stroke-width:39.3701; stroke-opacity:1; 
stroke-linecap:round; stroke-linejoin:round;">
</g>
<g style="fill:#FFFFFF; fill-opacity:1.0; 
stroke:#FFFFFF; stroke-width:0; stroke-opacity:1; 
stroke-linecap:round; stroke-linejoin:round;">
<circle cx="16761.2" cy="9011.81" r="78.7402" /> 
</g>
<g style="fill:#FFFFFF; fill-opacity:1.0; 
stroke:#FFFFFF; stroke-width:39.3701; stroke-opacity:1; 
stroke-linecap:round; stroke-linejoin:round;">
</g>
<g style="fill:#FFFFFF; fill-opacity:1.0; 
stroke:#FFFFFF; stroke-width:0; stroke-opacity:1; 
stroke-linecap:round; stroke-linejoin:round;">
<circle cx="8511.15" cy="5761.81" r="78.7402" /> 
</g>
<g style="fill:#FFFFFF; fill-opacity:1.0; 
stroke:#FFFFFF; stroke-width:39.3701; stroke-opacity:1; 
stroke-linecap:round; stroke-linejoin:round;">
</g>
<g style="fill:#FFFFFF; fill-opacity:1.0; 
stroke:#FFFFFF; stroke-width:0; stroke-opacity:1; 
stroke-linecap:round; stroke-linejoin:round;">
<circle cx="8538.71" cy="13234.3" r="78.7402" /> 
</g>
<g style="fill:#FFFFFF; fill-opacity:1.0; 
stroke:#FFFFFF; stroke-width:39.3701; stroke-opacity:1; 
stroke-linecap:round; stroke-linejoin:round;">
</g>
<g style="fill:#FFFFFF; fill-opacity:1.0; 
stroke:#FFFFFF; stroke-width:0; stroke-opacity:1; 
stroke-linecap:round; stroke-linejoin:round;">
<circle cx="10761.2" cy="14011.8" r="78.7402" /> 
</g>
<g style="fill:#FFFFFF; fill-opacity:1.0; 
stroke:#FFFFFF; stroke-width:39.3701; stroke-opacity:1; 
stroke-linecap:round; stroke-linejoin:round;">
</g>
<g style="fill:#FFFFFF; fill-opacity:1.0; 
stroke:#FFFFFF; stroke-width:0; stroke-opacity:1; 
stroke-linecap:round; stroke-linejoin:round;">
<circle cx="12761.2" cy="11511.8" r="78.7402" /> 
</g>
<g style="fill:#FFFFFF; fill-opacity:1.0; 
stroke:#FFFFFF; stroke-width:39.3701; stroke-opacity:1; 
stroke-linecap:round; stroke-linejoin:round;">
</g>
<g style="fill:#FFFFFF; fill-opacity:1.0; 
stroke:#FFFFFF; stroke-width:0; stroke-opacity:1; 
stroke-linecap:round; stroke-linejoin:round;">
<circle cx="9011.15" cy="4261.81" r="200" /> 
</g>
<g style="fill:#FFFFFF; fill-opacity:1.0; 
stroke:#FFFFFF; stroke-width:39.3701; stroke-opacity:1; 
stroke-linecap:round; stroke-linejoin:round;">
</g>
<g style="fill:#FFFFFF; fill-opacity:1.0; 
stroke:#FFFFFF; stroke-width:0; stroke-opacity:1; 
stroke-linecap:round; stroke-linejoin:round;">
<circle cx="8011.15" cy="4261.81" r="200" /> 
</g>
<g style="fill:#FFFFFF; fill-opacity:1.0; 
stroke:#FFFFFF; stroke-width:39.3701; stroke-opacity:1; 
stroke-linecap:round; stroke-linejoin:round;">
</g>
<g style="fill:#FFFFFF; fill-opacity:1.0; 
stroke:#FFFFFF; stroke-width:0; stroke-opacity:1; 
stroke-linecap:round; stroke-linejoin:round;">
<circle cx="7011.15" cy="4261.81" r="200" /> 
</g>
<g style="fill:#FFFFFF; fill-opacity:1.0; 
stroke:#FFFFFF; stroke-width:39.3701; stroke-opacity:1; 
stroke-linecap:round; stroke-linejoin:round;">
</g>
<g style="fill:#FFFFFF; fill-opacity:1.0; 
stroke:#FFFFFF; stroke-width:0; stroke-opacity:1; 
stroke-linecap:round; stroke-linejoin:round;">
<circle cx="6011.15" cy="4261.81" r="200" /> 
</g>
<g style="fill:#FFFFFF; fill-opacity:1.0; 
stroke:#FFFFFF; stroke-width:39.3701; stroke-opacity:1; 
stroke-linecap:round; stroke-linejoin:round;">
</g>
<g style="fill:#FFFFFF; fill-opacity:1.0; 
stroke:#FFFFFF; stroke-width:0; stroke-opacity:1; 
stroke-linecap:round; stroke-linejoin:round;">
<circle cx="5011.15" cy="4261.81" r="200" /> 
</g>
<g style="fill:#FFFFFF; fill-opacity:1.0; 
stroke:#FFFFFF; stroke-width:39.3701; stroke-opacity:1; 
stroke-linecap:round; stroke-linejoin:round;">
</g>
<g style="fill:#FFFFFF; fill-opacity:1.0; 
stroke:#FFFFFF; stroke-width:0; stroke-opacity:1; 
stroke-linecap:round; stroke-linejoin:round;">
<circle cx="4011.15" cy="4261.81" r="200" /> 
</g>
<g style="fill:#FFFFFF; fill-opacity:1.0; 
stroke:#FFFFFF; stroke-width:39.3701; stroke-opacity:1; 
stroke-linecap:round; stroke-linejoin:round;">
</g>
<g style="fill:#FFFFFF; fill-opacity:1.0; 
stroke:#FFFFFF; stroke-width:0; stroke-opacity:1; 
stroke-linecap:round; stroke-linejoin:round;">
<circle cx="3011.15" cy="4261.81" r="200" /> 
</g>
<g style="fill:#FFFFFF; fill-opacity:1.0; 
stroke:#FFFFFF; stroke-width:39.3701; stroke-opacity:1; 
stroke-linecap:round; stroke-linejoin:round;">
</g>
<g style="fill:#FFFFFF; fill-opacity:1.0; 
stroke:#FFFFFF; stroke-width:0; stroke-opacity:1; 
stroke-linecap:round; stroke-linejoin:round;">
<circle cx="2011.15" cy="4261.81" r="200" /> 
</g>
<g style="fill:#FFFFFF; fill-opacity:1.0; 
stroke:#FFFFFF; stroke-width:39.3701; stroke-opacity:1; 
stroke-linecap:round; stroke-linejoin:round;">
</g>
<g style="fill:#FFFFFF; fill-opacity:1.0; 
stroke:#FFFFFF; stroke-width:0; stroke-opacity:1; 
stroke-linecap:round; stroke-linejoin:round;">
<circle cx="18511.2" cy="2261.81" r="255.906" /> 
</g>
<g style="fill:#FFFFFF; fill-opacity:1.0; 
stroke:#FFFFFF; stroke-width:39.3701; stroke-opacity:1; 
stroke-linecap:round; stroke-linejoin:round;">
</g>
<g style="fill:#FFFFFF; fill-opacity:1.0; 
stroke:#FFFFFF; stroke-width:0; stroke-opacity:1; 
stroke-linecap:round; stroke-linejoin:round;">
<circle cx="16542.7" cy="2261.81" r="255.906" /> 
</g>
<g style="fill:#FFFFFF; fill-opacity:1.0; 
stroke:#FFFFFF; stroke-width:39.3701; stroke-opacity:1; 
stroke-linecap:round; stroke-linejoin:round;">
</g>
<g style="fill:#FFFFFF; fill-opacity:1.0; 
stroke:#FFFFFF; stroke-width:394; stroke-opacity:1; 
stroke-linecap:round; stroke-linejoin:round;">
</g>
<g style="fill:#FFFFFF; fill-opacity:0.0; 
stroke:#FFFFFF; stroke-width:394; stroke-opacity:1; 
stroke-linecap:round; stroke-linejoin:round;">
<path d="M15070 18155
L15070 17368
" />
<path d="M17432 18155
L17432 17368
" />
<path d="M16644 15911
L15857 15911
" />
</g>
<g style="fill:#FFFFFF; fill-opacity:1.0; 
stroke:#FFFFFF; stroke-width:0; stroke-opacity:1; 
stroke-linecap:round; stroke-linejoin:round;">
<circle cx="10011.2" cy="6761.81" r="200" /> 
</g>
<g style="fill:#FFFFFF; fill-opacity:1.0; 
stroke:#FFFFFF; stroke-width:39.3701; stroke-opacity:1; 
stroke-linecap:round; stroke-linejoin:round;">
</g>
<g style="fill:#FFFFFF; fill-opacity:1.0; 
stroke:#FFFFFF; stroke-width:0; stroke-opacity:1; 
stroke-linecap:round; stroke-linejoin:round;">
<circle cx="10011.2" cy="5761.81" r="200" /> 
</g>
<g style="fill:#FFFFFF; fill-opacity:1.0; 
stroke:#FFFFFF; stroke-width:39.3701; stroke-opacity:1; 
stroke-linecap:round; stroke-linejoin:round;">
</g>
<g style="fill:#FFFFFF; fill-opacity:1.0; 
stroke:#FFFFFF; stroke-width:0; stroke-opacity:1; 
stroke-linecap:round; stroke-linejoin:round;">
<circle cx="11011.2" cy="6761.81" r="200" /> 
</g>
<g style="fill:#FFFFFF; fill-opacity:1.0; 
stroke:#FFFFFF; stroke-width:39.3701; stroke-opacity:1; 
stroke-linecap:round; stroke-linejoin:round;">
</g>
<g style="fill:#FFFFFF; fill-opacity:1.0; 
stroke:#FFFFFF; stroke-width:0; stroke-opacity:1; 
stroke-linecap:round; stroke-linejoin:round;">
<circle cx="11011.2" cy="5761.81" r="200" /> 
</g>
<g style="fill:#FFFFFF; fill-opacity:1.0; 
stroke:#FFFFFF; stroke-width:39.3701; stroke-opacity:1; 
stroke-linecap:round; stroke-linejoin:round;">
</g>
<g style="fill:#FFFFFF; fill-opacity:1.0; 
stroke:#FFFFFF; stroke-width:0; stroke-opacity:1; 
stroke-linecap:round; stroke-linejoin:round;">
<circle cx="12011.2" cy="6761.81" r="200" /> 
</g>
<g style="fill:#FFFFFF; fill-opacity:1.0; 
stroke:#FFFFFF; stroke-width:39.3701; stroke-opacity:1; 
stroke-linecap:round; stroke-linejoin:round;">
</g>
<g style="fill:#FFFFFF; fill-opacity:1.0; 
stroke:#FFFFFF; stroke-width:0; stroke-opacity:1; 
stroke-linecap:round; stroke-linejoin:round;">
<circle cx="12011.2" cy="5761.81" r="200" /> 
</g>
<g style="fill:#FFFFFF; fill-opacity:1.0; 
stroke:#FFFFFF; stroke-width:39.3701; stroke-opacity:1; 
stroke-linecap:round; stroke-linejoin:round;">
</g>
<g style="fill:#FFFFFF; fill-opacity:1.0; 
stroke:#FFFFFF; stroke-width:0; stroke-opacity:1; 
stroke-linecap:round; stroke-linejoin:round;">
<circle cx="13761.2" cy="13011.8" r="197" /> 
</g>
<g style="fill:#FFFFFF; fill-opacity:1.0; 
stroke:#FFFFFF; stroke-width:39.3701; stroke-opacity:1; 
stroke-linecap:round; stroke-linejoin:round;">
</g>
<g style="fill:#FFFFFF; fill-opacity:1.0; 
stroke:#FFFFFF; stroke-width:0; stroke-opacity:1; 
stroke-linecap:round; stroke-linejoin:round;">
<circle cx="14761.2" cy="13011.8" r="197" /> 
</g>
<g style="fill:#FFFFFF; fill-opacity:1.0; 
stroke:#FFFFFF; stroke-width:39.3701; stroke-opacity:1; 
stroke-linecap:round; stroke-linejoin:round;">
</g>
<g style="fill:#FFFFFF; fill-opacity:1.0; 
stroke:#FFFFFF; stroke-width:0; stroke-opacity:1; 
stroke-linecap:round; stroke-linejoin:round;">
<circle cx="10011.2" cy="16261.8" r="200" /> 
</g>
<g style="fill:#FFFFFF; fill-opacity:1.0; 
stroke:#FFFFFF; stroke-width:39.3701; stroke-opacity:1; 
stroke-linecap:round; stroke-linejoin:round;">
</g>
<g style="fill:#FFFFFF; fill-opacity:1.0; 
stroke:#FFFFFF; stroke-width:0; stroke-opacity:1; 
stroke-linecap:round; stroke-linejoin:round;">
<circle cx="10011.2" cy="17261.8" r="200" /> 
</g>
<g style="fill:#FFFFFF; fill-opacity:1.0; 
stroke:#FFFFFF; stroke-width:39.3701; stroke-opacity:1; 
stroke-linecap:round; stroke-linejoin:round;">
</g>
<g style="fill:#FFFFFF; fill-opacity:1.0; 
stroke:#FFFFFF; stroke-width:0; stroke-opacity:1; 
stroke-linecap:round; stroke-linejoin:round;">
<circle cx="10011.2" cy="18261.8" r="200" /> 
</g>
<g style="fill:#FFFFFF; fill-opacity:1.0; 
stroke:#FFFFFF; stroke-width:39.3701; stroke-opacity:1; 
stroke-linecap:round; stroke-linejoin:round;">
</g>
<g style="fill:#FFFFFF; fill-opacity:1.0; 
stroke:#FFFFFF; stroke-width:0; stroke-opacity:1; 
stroke-linecap:round; stroke-linejoin:round;">
<circle cx="11011.2" cy="16261.8" r="200" /> 
</g>
<g style="fill:#FFFFFF; fill-opacity:1.0; 
stroke:#FFFFFF; stroke-width:39.3701; stroke-opacity:1; 
stroke-linecap:round; stroke-linejoin:round;">
</g>
<g style="fill:#FFFFFF; fill-opacity:1.0; 
stroke:#FFFFFF; stroke-width:0; stroke-opacity:1; 
stroke-linecap:round; stroke-linejoin:round;">
<circle cx="11011.2" cy="17261.8" r="200" /> 
</g>
<g style="fill:#FFFFFF; fill-opacity:1.0; 
stroke:#FFFFFF; stroke-width:39.3701; stroke-opacity:1; 
stroke-linecap:round; stroke-linejoin:round;">
</g>
<g style="fill:#FFFFFF; fill-opacity:1.0; 
stroke:#FFFFFF; stroke-width:0; stroke-opacity:1; 
stroke-linecap:round; stroke-linejoin:round;">
<circle cx="11011.2" cy="18261.8" r="200" /> 
</g>
<g style="fill:#FFFFFF; fill-opacity:1.0; 
stroke:#FFFFFF; stroke-width:39.3701; stroke-opacity:1; 
stroke-linecap:round; stroke-linejoin:round;">
</g>
<g style="fill:#FFFFFF; fill-opacity:1.0; 
stroke:#FFFFFF; stroke-width:0; stroke-opacity:1; 
stroke-linecap:round; stroke-linejoin:round;">
<circle cx="12011.2" cy="16261.8" r="200" /> 
</g>
<g style="fill:#FFFFFF; fill-opacity:1.0; 
stroke:#FFFFFF; stroke-width:39.3701; stroke-opacity:1; 
stroke-linecap:round; stroke-linejoin:round;">
</g>
<g style="fill:#FFFFFF; fill-opacity:1.0; 
stroke:#FFFFFF; stroke-width:0; stroke-opacity:1; 
stroke-linecap:round; stroke-linejoin:round;">
<circle cx="12011.2" cy="17261.8" r="200" /> 
</g>
<g style="fill:#FFFFFF; fill-opacity:1.0; 
stroke:#FFFFFF; stroke-width:39.3701; stroke-opacity:1; 
stroke-linecap:round; stroke-linejoin:round;">
</g>
<g style="fill:#FFFFFF; fill-opacity:1.0; 
stroke:#FFFFFF; stroke-width:0; stroke-opacity:1; 
stroke-linecap:round; stroke-linejoin:round;">
<circle cx="12011.2" cy="18261.8" r="200" /> 
</g>
<g style="fill:#FFFFFF; fill-opacity:1.0; 
stroke:#FFFFFF; stroke-width:39.3701; stroke-opacity:1; 
stroke-linecap:round; stroke-linejoin:round;">
</g>
<g style="fill:#FFFFFF; fill-opacity:1.0; 
stroke:#FFFFFF; stroke-width:0; stroke-opacity:1; 
stroke-linecap:round; stroke-linejoin:round;">
<circle cx="2011.15" cy="15761.8" r="200" /> 
</g>
<g style="fill:#FFFFFF; fill-opacity:1.0; 
stroke:#FFFFFF; stroke-width:39.3701; stroke-opacity:1; 
stroke-linecap:round; stroke-linejoin:round;">
</g>
<g style="fill:#FFFFFF; fill-opacity:1.0; 
stroke:#FFFFFF; stroke-width:0; stroke-opacity:1; 
stroke-linecap:round; stroke-linejoin:round;">
<circle cx="3011.15" cy="15761.8" r="200" /> 
</g>
<g style="fill:#FFFFFF; fill-opacity:1.0; 
stroke:#FFFFFF; stroke-width:39.3701; stroke-opacity:1; 
stroke-linecap:round; stroke-linejoin:round;">
</g>
<g style="fill:#FFFFFF; fill-opacity:1.0; 
stroke:#FFFFFF; stroke-width:0; stroke-opacity:1; 
stroke-linecap:round; stroke-linejoin:round;">
<circle cx="4011.15" cy="15761.8" r="200" /> 
</g>
<g style="fill:#FFFFFF; fill-opacity:1.0; 
stroke:#FFFFFF; stroke-width:39.3701; stroke-opacity:1; 
stroke-linecap:round; stroke-linejoin:round;">
</g>
<g style="fill:#FFFFFF; fill-opacity:1.0; 
stroke:#FFFFFF; stroke-width:0; stroke-opacity:1; 
stroke-linecap:round; stroke-linejoin:round;">
<circle cx="5011.15" cy="15761.8" r="200" /> 
</g>
<g style="fill:#FFFFFF; fill-opacity:1.0; 
stroke:#FFFFFF; stroke-width:39.3701; stroke-opacity:1; 
stroke-linecap:round; stroke-linejoin:round;">
</g>
<g style="fill:#FFFFFF; fill-opacity:1.0; 
stroke:#FFFFFF; stroke-width:0; stroke-opacity:1; 
stroke-linecap:round; stroke-linejoin:round;">
<circle cx="6011.15" cy="15761.8" r="200" /> 
</g>
<g style="fill:#FFFFFF; fill-opacity:1.0; 
stroke:#FFFFFF; stroke-width:39.3701; stroke-opacity:1; 
stroke-linecap:round; stroke-linejoin:round;">
</g>
<g style="fill:#FFFFFF; fill-opacity:1.0; 
stroke:#FFFFFF; stroke-width:0; stroke-opacity:1; 
stroke-linecap:round; stroke-linejoin:round;">
<circle cx="7011.15" cy="15761.8" r="200" /> 
</g>
<g style="fill:#FFFFFF; fill-opacity:1.0; 
stroke:#FFFFFF; stroke-width:39.3701; stroke-opacity:1; 
stroke-linecap:round; stroke-linejoin:round;">
</g>
<g style="fill:#FFFFFF; fill-opacity:1.0; 
stroke:#FFFFFF; stroke-width:0; stroke-opacity:1; 
stroke-linecap:round; stroke-linejoin:round;">
<circle cx="14511.2" cy="2261.81" r="255.906" /> 
</g>
<g style="fill:#FFFFFF; fill-opacity:1.0; 
stroke:#FFFFFF; stroke-width:39.3701; stroke-opacity:1; 
stroke-linecap:round; stroke-linejoin:round;">
</g>
<g style="fill:#FFFFFF; fill-opacity:1.0; 
stroke:#FFFFFF; stroke-width:0; stroke-opacity:1; 
stroke-linecap:round; stroke-linejoin:round;">
<circle cx="12542.7" cy="2261.81" r="255.906" /> 
</g>
<g style="fill:#FFFFFF; fill-opacity:1.0; 
stroke:#FFFFFF; stroke-width:39.3701; stroke-opacity:1; 
stroke-linecap:round; stroke-linejoin:round;">
</g>
<g style="fill:#FFFFFF; fill-opacity:1.0; 
stroke:#FFFFFF; stroke-width:0; stroke-opacity:1; 
stroke-linecap:round; stroke-linejoin:round;">
<circle cx="3011.15" cy="8261.81" r="200" /> 
</g>
<g style="fill:#FFFFFF; fill-opacity:1.0; 
stroke:#FFFFFF; stroke-width:39.3701; stroke-opacity:1; 
stroke-linecap:round; stroke-linejoin:round;">
</g>
<g style="fill:#FFFFFF; fill-opacity:1.0; 
stroke:#FFFFFF; stroke-width:0; stroke-opacity:1; 
stroke-linecap:round; stroke-linejoin:round;">
<circle cx="2011.15" cy="8261.81" r="200" /> 
</g>
<g style="fill:#FFFFFF; fill-opacity:1.0; 
stroke:#FFFFFF; stroke-width:39.3701; stroke-opacity:1; 
stroke-linecap:round; stroke-linejoin:round;">
</g>
<g style="fill:#FFFFFF; fill-opacity:1.0; 
stroke:#FFFFFF; stroke-width:0; stroke-opacity:1; 
stroke-linecap:round; stroke-linejoin:round;">
<circle cx="3011.15" cy="9261.81" r="200" /> 
</g>
<g style="fill:#FFFFFF; fill-opacity:1.0; 
stroke:#FFFFFF; stroke-width:39.3701; stroke-opacity:1; 
stroke-linecap:round; stroke-linejoin:round;">
</g>
<g style="fill:#FFFFFF; fill-opacity:1.0; 
stroke:#FFFFFF; stroke-width:0; stroke-opacity:1; 
stroke-linecap:round; stroke-linejoin:round;">
<circle cx="2011.15" cy="9261.81" r="200" /> 
</g>
<g style="fill:#FFFFFF; fill-opacity:1.0; 
stroke:#FFFFFF; stroke-width:39.3701; stroke-opacity:1; 
stroke-linecap:round; stroke-linejoin:round;">
</g>
<g style="fill:#FFFFFF; fill-opacity:1.0; 
stroke:#FFFFFF; stroke-width:0; stroke-opacity:1; 
stroke-linecap:round; stroke-linejoin:round;">
<circle cx="3011.15" cy="10261.8" r="200" /> 
</g>
<g style="fill:#FFFFFF; fill-opacity:1.0; 
stroke:#FFFFFF; stroke-width:39.3701; stroke-opacity:1; 
stroke-linecap:round; stroke-linejoin:round;">
</g>
<g style="fill:#FFFFFF; fill-opacity:1.0; 
stroke:#FFFFFF; stroke-width:0; stroke-opacity:1; 
stroke-linecap:round; stroke-linejoin:round;">
<circle cx="2011.15" cy="10261.8" r="200" /> 
</g>
<g style="fill:#FFFFFF; fill-opacity:1.0; 
stroke:#FFFFFF; stroke-width:39.3701; stroke-opacity:1; 
stroke-linecap:round; stroke-linejoin:round;">
</g>
<g style="fill:#FFFFFF; fill-opacity:1.0; 
stroke:#FFFFFF; stroke-width:0; stroke-opacity:1; 
stroke-linecap:round; stroke-linejoin:round;">
<circle cx="3011.15" cy="11261.8" r="200" /> 
</g>
<g style="fill:#FFFFFF; fill-opacity:1.0; 
stroke:#FFFFFF; stroke-width:39.3701; stroke-opacity:1; 
stroke-linecap:round; stroke-linejoin:round;">
</g>
<g style="fill:#FFFFFF; fill-opacity:1.0; 
stroke:#FFFFFF; stroke-width:0; stroke-opacity:1; 
stroke-linecap:round; stroke-linejoin:round;">
<circle cx="2011.15" cy="11261.8" r="200" /> 
</g>
<g style="fill:#FFFFFF; fill-opacity:1.0; 
stroke:#FFFFFF; stroke-width:39.3701; stroke-opacity:1; 
stroke-linecap:round; stroke-linejoin:round;">
</g>
<g style="fill:#000000; fill-opacity:1.0; 
stroke:#000000; stroke-width:39.3701; stroke-opacity:1; 
stroke-linecap:round; stroke-linejoin:round;">
</g> 
</svg>
