<?xml version="1.0" standalone="no"?>
 <!DOCTYPE svg PUBLIC "-//W3C//DTD SVG 1.1//EN" 
 "http://www.w3.org/Graphics/SVG/1.1/DTD/svg11.dtd"> 
<svg xmlns="http://www.w3.org/2000/svg" version="1.1" 
    width="5.22478cm" height="5.207cm" viewBox="0 0 20570 20500 ">
<title>SVG Picture created as uselessbots v0-F.Cu.svg date 2016/05/11 01:30:23 </title>
  <desc>Picture generated by PCBNEW </desc>
<g style="fill:#000000; fill-opacity:1;stroke:#000000; stroke-opacity:1;
stroke-linecap:round; stroke-linejoin:round; "
 transform="translate(0 0) scale(1 1)">
</g>
<g style="fill:#000000; fill-opacity:0.0; 
stroke:#000000; stroke-width:-0.000393701; stroke-opacity:1; 
stroke-linecap:round; stroke-linejoin:round;">
</g>
<g style="fill:#000000; fill-opacity:0.0; 
stroke:#000000; stroke-width:118.11; stroke-opacity:1; 
stroke-linecap:round; stroke-linejoin:round;">
<path d="M2105 1806
L2105 1215
L2330 1215
L2386 1244
L2414 1272
L2442 1328
L2442 1412
L2414 1469
L2386 1497
L2330 1525
L2105 1525
" />
<path d="M2780 1806
L2724 1778
L2695 1750
L2667 1694
L2667 1525
L2695 1469
L2724 1440
L2780 1412
L2864 1412
L2920 1440
L2949 1469
L2977 1525
L2977 1694
L2949 1750
L2920 1778
L2864 1806
L2780 1806
" />
<path d="M3483 1412
L3483 1890
L3455 1947
L3427 1975
L3370 2003
L3286 2003
L3230 1975
" />
<path d="M3483 1778
L3427 1806
L3314 1806
L3258 1778
L3230 1750
L3202 1694
L3202 1525
L3230 1469
L3258 1440
L3314 1412
L3427 1412
L3483 1440
" />
<path d="M3848 1806
L3792 1778
L3764 1750
L3736 1694
L3736 1525
L3764 1469
L3792 1440
L3848 1412
L3933 1412
L3989 1440
L4017 1469
L4045 1525
L4045 1694
L4017 1750
L3989 1778
L3933 1806
L3848 1806
" />
<path d="M4298 1806
L4298 1412
" />
<path d="M4298 1525
L4326 1469
L4355 1440
L4411 1412
L4467 1412
" />
<path d="M4889 1778
L4833 1806
L4720 1806
L4664 1778
L4636 1722
L4636 1497
L4664 1440
L4720 1412
L4833 1412
L4889 1440
L4917 1497
L4917 1553
L4636 1609
" />
<path d="M5423 1806
L5423 1497
L5395 1440
L5339 1412
L5226 1412
L5170 1440
" />
<path d="M5423 1778
L5367 1806
L5226 1806
L5170 1778
L5142 1722
L5142 1665
L5170 1609
L5226 1581
L5367 1581
L5423 1553
" />
<path d="M5704 1412
L5704 1806
" />
<path d="M5704 1469
L5733 1440
L5789 1412
L5873 1412
L5929 1440
L5958 1497
L5958 1806
" />
<path d="M6492 1412
L6492 1806
" />
<path d="M6239 1412
L6239 1722
L6267 1778
L6323 1806
L6407 1806
L6464 1778
L6492 1750
" />
<path d="M7560 1806
L7364 1525
" />
<path d="M7223 1806
L7223 1215
L7448 1215
L7504 1244
L7532 1272
L7560 1328
L7560 1412
L7532 1469
L7504 1497
L7448 1525
L7223 1525
" />
<path d="M8067 1806
L8067 1497
L8038 1440
L7982 1412
L7870 1412
L7814 1440
" />
<path d="M8067 1778
L8010 1806
L7870 1806
L7814 1778
L7785 1722
L7785 1665
L7814 1609
L7870 1581
L8010 1581
L8067 1553
" />
<path d="M8348 1806
L8348 1412
" />
<path d="M8348 1525
L8376 1469
L8404 1440
L8460 1412
L8517 1412
" />
<path d="M8938 1778
L8882 1806
L8770 1806
L8713 1778
L8685 1722
L8685 1497
L8713 1440
L8770 1412
L8882 1412
L8938 1440
L8967 1497
L8967 1553
L8685 1609
" />
<path d="M9191 1778
L9248 1806
L9360 1806
L9416 1778
L9445 1722
L9445 1694
L9416 1637
L9360 1609
L9276 1609
L9220 1581
L9191 1525
L9191 1497
L9220 1440
L9276 1412
L9360 1412
L9416 1440
" />
<path d="M3441 2160
L3778 2160
" />
<path d="M3609 2751
L3609 2160
" />
<path d="M3947 2582
L4228 2582
" />
<path d="M3891 2751
L4087 2160
L4284 2751
" />
<path d="M4481 2751
L4481 2160
L4819 2751
L4819 2160
" />
<path d="M5100 2751
L5100 2160
" />
<path d="M5437 2751
L5184 2413
" />
<path d="M5437 2160
L5100 2498
" />
<path d="M5690 2695
L5718 2723
L5690 2751
L5662 2723
L5690 2695
L5690 2751
" />
<path d="M5690 2526
L5662 2188
L5690 2160
L5718 2188
L5690 2526
L5690 2160
" />
<path d="M6365 2357
L6506 2751
L6646 2357
" />
<path d="M6984 2160
L7040 2160
L7096 2188
L7125 2217
L7153 2273
L7181 2385
L7181 2526
L7153 2638
L7125 2695
L7096 2723
L7040 2751
L6984 2751
L6928 2723
L6900 2695
L6871 2638
L6843 2526
L6843 2385
L6871 2273
L6900 2217
L6928 2188
L6984 2160
" />
<path d="M7434 2695
L7462 2723
L7434 2751
L7406 2723
L7434 2695
L7434 2751
" />
<path d="M7968 2160
L7856 2160
L7799 2188
L7771 2217
L7715 2301
L7687 2413
L7687 2638
L7715 2695
L7743 2723
L7799 2751
L7912 2751
L7968 2723
L7996 2695
L8024 2638
L8024 2498
L7996 2442
L7968 2413
L7912 2385
L7799 2385
L7743 2413
L7715 2442
L7687 2498
" />
</g>
<g style="fill:#000000; fill-opacity:0.0; 
stroke:#000000; stroke-width:59.0551; stroke-opacity:1; 
stroke-linecap:round; stroke-linejoin:round;">
<path d="M1011 19761
L1011 261
" />
<path d="M20511 19761
L1011 19761
" />
<path d="M20511 261
L20511 19761
" />
<path d="M1011 261
L20511 261
" />
</g>
<g style="fill:#000000; fill-opacity:0.0; 
stroke:#000000; stroke-width:0; stroke-opacity:1; 
stroke-linecap:round; stroke-linejoin:round;">
</g>
<g style="fill:#000000; fill-opacity:1.0; 
stroke:#000000; stroke-width:0; stroke-opacity:1; 
stroke-linecap:round; stroke-linejoin:round;">
<polyline style="fill-rule:evenodd;"
points="8017,11750
7800,11750
7800,11120
8017,11120
8017,11750
" /> 
<polyline style="fill-rule:evenodd;"
points="8332,11750
8115,11750
8115,11120
8332,11120
8332,11750
" /> 
<polyline style="fill-rule:evenodd;"
points="8646,11750
8430,11750
8430,11120
8646,11120
8646,11750
" /> 
<polyline style="fill-rule:evenodd;"
points="8961,11750
8745,11750
8745,11120
8961,11120
8961,11750
" /> 
<polyline style="fill-rule:evenodd;"
points="9276,11750
9060,11750
9060,11120
9276,11120
9276,11750
" /> 
<polyline style="fill-rule:evenodd;"
points="9591,11750
9375,11750
9375,11120
9591,11120
9591,11750
" /> 
<polyline style="fill-rule:evenodd;"
points="9906,11750
9690,11750
9690,11120
9906,11120
9906,11750
" /> 
<polyline style="fill-rule:evenodd;"
points="10221,11750
10005,11750
10005,11120
10221,11120
10221,11750
" /> 
<polyline style="fill-rule:evenodd;"
points="10999,10755
10999,10972
10369,10972
10369,10755
10999,10755
" /> 
<polyline style="fill-rule:evenodd;"
points="10999,10440
10999,10657
10369,10657
10369,10440
10999,10440
" /> 
<polyline style="fill-rule:evenodd;"
points="10999,10125
10999,10342
10369,10342
10369,10125
10999,10125
" /> 
<polyline style="fill-rule:evenodd;"
points="10999,9811
10999,10027
10369,10027
10369,9811
10999,9811
" /> 
<polyline style="fill-rule:evenodd;"
points="10999,9496
10999,9712
10369,9712
10369,9496
10999,9496
" /> 
<polyline style="fill-rule:evenodd;"
points="10999,9181
10999,9397
10369,9397
10369,9181
10999,9181
" /> 
<polyline style="fill-rule:evenodd;"
points="10999,8866
10999,9082
10369,9082
10369,8866
10999,8866
" /> 
<polyline style="fill-rule:evenodd;"
points="10999,8551
10999,8767
10369,8767
10369,8551
10999,8551
" /> 
<polyline style="fill-rule:evenodd;"
points="10221,8403
10005,8403
10005,7773
10221,7773
10221,8403
" /> 
<polyline style="fill-rule:evenodd;"
points="9906,8403
9690,8403
9690,7773
9906,7773
9906,8403
" /> 
<polyline style="fill-rule:evenodd;"
points="9591,8403
9375,8403
9375,7773
9591,7773
9591,8403
" /> 
<polyline style="fill-rule:evenodd;"
points="9276,8403
9060,8403
9060,7773
9276,7773
9276,8403
" /> 
<polyline style="fill-rule:evenodd;"
points="8961,8403
8745,8403
8745,7773
8961,7773
8961,8403
" /> 
<polyline style="fill-rule:evenodd;"
points="8646,8403
8430,8403
8430,7773
8646,7773
8646,8403
" /> 
<polyline style="fill-rule:evenodd;"
points="8332,8403
8115,8403
8115,7773
8332,7773
8332,8403
" /> 
<polyline style="fill-rule:evenodd;"
points="8017,8403
7800,8403
7800,7773
8017,7773
8017,8403
" /> 
<polyline style="fill-rule:evenodd;"
points="7652,8551
7652,8767
7022,8767
7022,8551
7652,8551
" /> 
<polyline style="fill-rule:evenodd;"
points="7652,8866
7652,9082
7022,9082
7022,8866
7652,8866
" /> 
<polyline style="fill-rule:evenodd;"
points="7652,9181
7652,9397
7022,9397
7022,9181
7652,9181
" /> 
<polyline style="fill-rule:evenodd;"
points="7652,9496
7652,9712
7022,9712
7022,9496
7652,9496
" /> 
<polyline style="fill-rule:evenodd;"
points="7652,9811
7652,10027
7022,10027
7022,9811
7652,9811
" /> 
<polyline style="fill-rule:evenodd;"
points="7652,10125
7652,10342
7022,10342
7022,10125
7652,10125
" /> 
<polyline style="fill-rule:evenodd;"
points="7652,10440
7652,10657
7022,10657
7022,10440
7652,10440
" /> 
<polyline style="fill-rule:evenodd;"
points="7652,10755
7652,10972
7022,10972
7022,10755
7652,10755
" /> 
<polyline style="fill-rule:evenodd;"
points="9351,3861
9351,4661
8671,4661
8671,3861
9351,3861
" /> 
</g>
<g style="fill:#000000; fill-opacity:1.0; 
stroke:#000000; stroke-width:680; stroke-opacity:1; 
stroke-linecap:round; stroke-linejoin:round;">
</g>
<g style="fill:#000000; fill-opacity:0.0; 
stroke:#000000; stroke-width:680; stroke-opacity:1; 
stroke-linecap:round; stroke-linejoin:round;">
<path d="M8011 4321
L8011 4201
" />
<path d="M7011 4321
L7011 4201
" />
<path d="M6011 4321
L6011 4201
" />
<path d="M5011 4321
L5011 4201
" />
<path d="M4011 4321
L4011 4201
" />
<path d="M3011 4321
L3011 4201
" />
<path d="M2011 4321
L2011 4201
" />
</g>
<g style="fill:#000000; fill-opacity:0.0; 
stroke:#000000; stroke-width:0; stroke-opacity:1; 
stroke-linecap:round; stroke-linejoin:round;">
</g>
<g style="fill:#000000; fill-opacity:1.0; 
stroke:#000000; stroke-width:0; stroke-opacity:1; 
stroke-linecap:round; stroke-linejoin:round;">
<polyline style="fill-rule:evenodd;"
points="19003,1769
19003,2753
18019,2753
18019,1769
19003,1769
" /> 
<circle cx="16542.7" cy="2261.81" r="492.126" /> 
</g>
<g style="fill:#000000; fill-opacity:1.0; 
stroke:#000000; stroke-width:39.3701; stroke-opacity:1; 
stroke-linecap:round; stroke-linejoin:round;">
</g>
<g style="fill:#000000; fill-opacity:1.0; 
stroke:#000000; stroke-width:0; stroke-opacity:1; 
stroke-linecap:round; stroke-linejoin:round;">
<polyline style="fill-rule:evenodd;"
points="18515,14224
19007,14224
19007,14814
18515,14814
18515,14224
" /> 
<polyline style="fill-rule:evenodd;"
points="18515,15208
19007,15208
19007,15799
18515,15799
18515,15208
" /> 
<polyline style="fill-rule:evenodd;"
points="18298,13515
18298,14007
17708,14007
17708,13515
18298,13515
" /> 
<polyline style="fill-rule:evenodd;"
points="17314,13515
17314,14007
16723,14007
16723,13515
17314,13515
" /> 
<polyline style="fill-rule:evenodd;"
points="15759,17072
15759,18450
14381,18450
14381,17072
15759,17072
" /> 
<polyline style="fill-rule:evenodd;"
points="18121,17072
18121,18450
16743,18450
16743,17072
18121,17072
" /> 
<polyline style="fill-rule:evenodd;"
points="16940,15222
16940,16600
15562,16600
15562,15222
16940,15222
" /> 
<polyline style="fill-rule:evenodd;"
points="10351,7101
9671,7101
9671,6421
10351,6421
10351,7101
" /> 
</g>
<g style="fill:#000000; fill-opacity:1.0; 
stroke:#000000; stroke-width:680; stroke-opacity:1; 
stroke-linecap:round; stroke-linejoin:round;">
</g>
<g style="fill:#000000; fill-opacity:0.0; 
stroke:#000000; stroke-width:680; stroke-opacity:1; 
stroke-linecap:round; stroke-linejoin:round;">
<path d="M10011 5761
L10011 5761
" />
<path d="M11011 6761
L11011 6761
" />
<path d="M11011 5761
L11011 5761
" />
<path d="M12011 6761
L12011 6761
" />
<path d="M12011 5761
L12011 5761
" />
</g>
<g style="fill:#000000; fill-opacity:0.0; 
stroke:#000000; stroke-width:0; stroke-opacity:1; 
stroke-linecap:round; stroke-linejoin:round;">
</g>
<g style="fill:#000000; fill-opacity:1.0; 
stroke:#000000; stroke-width:0; stroke-opacity:1; 
stroke-linecap:round; stroke-linejoin:round;">
<polyline style="fill-rule:evenodd;"
points="14135,13405
13387,13405
13387,12618
14135,12618
14135,13405
" /> 
<circle cx="14761.2" cy="13011.8" r="374.016" /> 
</g>
<g style="fill:#000000; fill-opacity:1.0; 
stroke:#000000; stroke-width:39.3701; stroke-opacity:1; 
stroke-linecap:round; stroke-linejoin:round;">
</g>
<g style="fill:#000000; fill-opacity:1.0; 
stroke:#000000; stroke-width:0; stroke-opacity:1; 
stroke-linecap:round; stroke-linejoin:round;">
<polyline style="fill-rule:evenodd;"
points="9611,16601
9611,15921
10411,15921
10411,16601
9611,16601
" /> 
</g>
<g style="fill:#000000; fill-opacity:1.0; 
stroke:#000000; stroke-width:680; stroke-opacity:1; 
stroke-linecap:round; stroke-linejoin:round;">
</g>
<g style="fill:#000000; fill-opacity:0.0; 
stroke:#000000; stroke-width:680; stroke-opacity:1; 
stroke-linecap:round; stroke-linejoin:round;">
<path d="M9951 17261
L10071 17261
" />
<path d="M9951 18261
L10071 18261
" />
</g>
<g style="fill:#000000; fill-opacity:0.0; 
stroke:#000000; stroke-width:0; stroke-opacity:1; 
stroke-linecap:round; stroke-linejoin:round;">
</g>
<g style="fill:#000000; fill-opacity:1.0; 
stroke:#000000; stroke-width:0; stroke-opacity:1; 
stroke-linecap:round; stroke-linejoin:round;">
<polyline style="fill-rule:evenodd;"
points="10611,16601
10611,15921
11411,15921
11411,16601
10611,16601
" /> 
</g>
<g style="fill:#000000; fill-opacity:1.0; 
stroke:#000000; stroke-width:680; stroke-opacity:1; 
stroke-linecap:round; stroke-linejoin:round;">
</g>
<g style="fill:#000000; fill-opacity:0.0; 
stroke:#000000; stroke-width:680; stroke-opacity:1; 
stroke-linecap:round; stroke-linejoin:round;">
<path d="M10951 17261
L11071 17261
" />
<path d="M10951 18261
L11071 18261
" />
</g>
<g style="fill:#000000; fill-opacity:0.0; 
stroke:#000000; stroke-width:0; stroke-opacity:1; 
stroke-linecap:round; stroke-linejoin:round;">
</g>
<g style="fill:#000000; fill-opacity:1.0; 
stroke:#000000; stroke-width:0; stroke-opacity:1; 
stroke-linecap:round; stroke-linejoin:round;">
<polyline style="fill-rule:evenodd;"
points="11611,16601
11611,15921
12411,15921
12411,16601
11611,16601
" /> 
</g>
<g style="fill:#000000; fill-opacity:1.0; 
stroke:#000000; stroke-width:680; stroke-opacity:1; 
stroke-linecap:round; stroke-linejoin:round;">
</g>
<g style="fill:#000000; fill-opacity:0.0; 
stroke:#000000; stroke-width:680; stroke-opacity:1; 
stroke-linecap:round; stroke-linejoin:round;">
<path d="M11951 17261
L12071 17261
" />
<path d="M11951 18261
L12071 18261
" />
</g>
<g style="fill:#000000; fill-opacity:0.0; 
stroke:#000000; stroke-width:0; stroke-opacity:1; 
stroke-linecap:round; stroke-linejoin:round;">
</g>
<g style="fill:#000000; fill-opacity:1.0; 
stroke:#000000; stroke-width:0; stroke-opacity:1; 
stroke-linecap:round; stroke-linejoin:round;">
<polyline style="fill-rule:evenodd;"
points="1671,16161
1671,15361
2351,15361
2351,16161
1671,16161
" /> 
</g>
<g style="fill:#000000; fill-opacity:1.0; 
stroke:#000000; stroke-width:680; stroke-opacity:1; 
stroke-linecap:round; stroke-linejoin:round;">
</g>
<g style="fill:#000000; fill-opacity:0.0; 
stroke:#000000; stroke-width:680; stroke-opacity:1; 
stroke-linecap:round; stroke-linejoin:round;">
<path d="M3011 15701
L3011 15821
" />
<path d="M4011 15701
L4011 15821
" />
<path d="M5011 15701
L5011 15821
" />
<path d="M6011 15701
L6011 15821
" />
<path d="M7011 15701
L7011 15821
" />
</g>
<g style="fill:#000000; fill-opacity:0.0; 
stroke:#000000; stroke-width:0; stroke-opacity:1; 
stroke-linecap:round; stroke-linejoin:round;">
</g>
<g style="fill:#000000; fill-opacity:1.0; 
stroke:#000000; stroke-width:0; stroke-opacity:1; 
stroke-linecap:round; stroke-linejoin:round;">
<polyline style="fill-rule:evenodd;"
points="15003,1769
15003,2753
14019,2753
14019,1769
15003,1769
" /> 
<circle cx="12542.7" cy="2261.81" r="492.126" /> 
</g>
<g style="fill:#000000; fill-opacity:1.0; 
stroke:#000000; stroke-width:39.3701; stroke-opacity:1; 
stroke-linecap:round; stroke-linejoin:round;">
</g>
<g style="fill:#000000; fill-opacity:1.0; 
stroke:#000000; stroke-width:0; stroke-opacity:1; 
stroke-linecap:round; stroke-linejoin:round;">
<polyline style="fill-rule:evenodd;"
points="11934,14767
11934,14255
12524,14255
12524,14767
11934,14767
" /> 
<polyline style="fill-rule:evenodd;"
points="12997,14767
12997,14255
13587,14255
13587,14767
12997,14767
" /> 
<polyline style="fill-rule:evenodd;"
points="4770,14057
4337,14057
4337,13348
4770,13348
4770,14057
" /> 
<polyline style="fill-rule:evenodd;"
points="4770,11616
4337,11616
4337,10907
4770,10907
4770,11616
" /> 
<polyline style="fill-rule:evenodd;"
points="6227,14057
5794,14057
5794,13348
6227,13348
6227,14057
" /> 
<polyline style="fill-rule:evenodd;"
points="6227,11616
5794,11616
5794,10907
6227,10907
6227,11616
" /> 
<polyline style="fill-rule:evenodd;"
points="17291,10361
17291,9561
18731,9561
18731,10361
17291,10361
" /> 
<polyline style="fill-rule:evenodd;"
points="17811,12961
17811,12161
18211,12161
18211,12961
17811,12961
" /> 
<polyline style="fill-rule:evenodd;"
points="18711,12961
18711,12161
19111,12161
19111,12961
18711,12961
" /> 
<polyline style="fill-rule:evenodd;"
points="16911,12961
16911,12161
17311,12161
17311,12961
16911,12961
" /> 
<polyline style="fill-rule:evenodd;"
points="2671,7921
3351,7921
3351,8601
2671,8601
2671,7921
" /> 
</g>
<g style="fill:#000000; fill-opacity:1.0; 
stroke:#000000; stroke-width:680; stroke-opacity:1; 
stroke-linecap:round; stroke-linejoin:round;">
</g>
<g style="fill:#000000; fill-opacity:0.0; 
stroke:#000000; stroke-width:680; stroke-opacity:1; 
stroke-linecap:round; stroke-linejoin:round;">
<path d="M2011 8261
L2011 8261
" />
<path d="M3011 9261
L3011 9261
" />
<path d="M2011 9261
L2011 9261
" />
<path d="M3011 10261
L3011 10261
" />
<path d="M2011 10261
L2011 10261
" />
<path d="M3011 11261
L3011 11261
" />
<path d="M2011 11261
L2011 11261
" />
</g>
<g style="fill:#000000; fill-opacity:0.0; 
stroke:#000000; stroke-width:0; stroke-opacity:1; 
stroke-linecap:round; stroke-linejoin:round;">
</g>
<g style="fill:#000000; fill-opacity:1.0; 
stroke:#000000; stroke-width:0; stroke-opacity:1; 
stroke-linecap:round; stroke-linejoin:round;">
<polyline style="fill-rule:evenodd;"
points="16830,5000
17007,5000
17007,5688
16830,5688
16830,5000
" /> 
<polyline style="fill-rule:evenodd;"
points="16574,5000
16751,5000
16751,5688
16574,5688
16574,5000
" /> 
<polyline style="fill-rule:evenodd;"
points="16318,5000
16495,5000
16495,5688
16318,5688
16318,5000
" /> 
<polyline style="fill-rule:evenodd;"
points="16062,5000
16239,5000
16239,5688
16062,5688
16062,5000
" /> 
<polyline style="fill-rule:evenodd;"
points="15806,5000
15983,5000
15983,5688
15806,5688
15806,5000
" /> 
<polyline style="fill-rule:evenodd;"
points="15550,5000
15727,5000
15727,5688
15550,5688
15550,5000
" /> 
<polyline style="fill-rule:evenodd;"
points="15294,5000
15471,5000
15471,5688
15294,5688
15294,5000
" /> 
<polyline style="fill-rule:evenodd;"
points="15038,5000
15215,5000
15215,5688
15038,5688
15038,5000
" /> 
<polyline style="fill-rule:evenodd;"
points="14782,5000
14959,5000
14959,5688
14782,5688
14782,5000
" /> 
<polyline style="fill-rule:evenodd;"
points="14526,5000
14704,5000
14704,5688
14526,5688
14526,5000
" /> 
<polyline style="fill-rule:evenodd;"
points="14270,5000
14448,5000
14448,5688
14270,5688
14270,5000
" /> 
<polyline style="fill-rule:evenodd;"
points="14015,5000
14192,5000
14192,5688
14015,5688
14015,5000
" /> 
<polyline style="fill-rule:evenodd;"
points="14015,7834
14192,7834
14192,8523
14015,8523
14015,7834
" /> 
<polyline style="fill-rule:evenodd;"
points="14270,7834
14448,7834
14448,8523
14270,8523
14270,7834
" /> 
<polyline style="fill-rule:evenodd;"
points="14526,7834
14704,7834
14704,8523
14526,8523
14526,7834
" /> 
<polyline style="fill-rule:evenodd;"
points="14782,7834
14959,7834
14959,8523
14782,8523
14782,7834
" /> 
<polyline style="fill-rule:evenodd;"
points="15038,7834
15215,7834
15215,8523
15038,8523
15038,7834
" /> 
<polyline style="fill-rule:evenodd;"
points="15294,7834
15471,7834
15471,8523
15294,8523
15294,7834
" /> 
<polyline style="fill-rule:evenodd;"
points="15550,7834
15727,7834
15727,8523
15550,8523
15550,7834
" /> 
<polyline style="fill-rule:evenodd;"
points="15806,7834
15983,7834
15983,8523
15806,8523
15806,7834
" /> 
<polyline style="fill-rule:evenodd;"
points="16062,7834
16239,7834
16239,8523
16062,8523
16062,7834
" /> 
<polyline style="fill-rule:evenodd;"
points="16318,7834
16495,7834
16495,8523
16318,8523
16318,7834
" /> 
<polyline style="fill-rule:evenodd;"
points="16574,7834
16751,7834
16751,8523
16574,8523
16574,7834
" /> 
<polyline style="fill-rule:evenodd;"
points="16830,7834
17007,7834
17007,8523
16830,8523
16830,7834
" /> 
<polyline style="fill-rule:evenodd;"
points="13257,8549
12765,8549
12765,7958
13257,7958
13257,8549
" /> 
<polyline style="fill-rule:evenodd;"
points="13257,7564
12765,7564
12765,6974
13257,6974
13257,7564
" /> 
<polyline style="fill-rule:evenodd;"
points="11981,11974
11981,13549
11509,13549
11509,11974
11981,11974
" /> 
<polyline style="fill-rule:evenodd;"
points="11036,11974
11036,13549
10485,13549
10485,11974
11036,11974
" /> 
<polyline style="fill-rule:evenodd;"
points="10013,11974
10013,13549
9540,13549
9540,11974
10013,11974
" /> 
<circle cx="19511.2" cy="9011.81" r="118.11" /> 
</g>
<g style="fill:#000000; fill-opacity:1.0; 
stroke:#000000; stroke-width:39.3701; stroke-opacity:1; 
stroke-linecap:round; stroke-linejoin:round;">
</g>
<g style="fill:#000000; fill-opacity:1.0; 
stroke:#000000; stroke-width:0; stroke-opacity:1; 
stroke-linecap:round; stroke-linejoin:round;">
<circle cx="16761.2" cy="9011.81" r="118.11" /> 
</g>
<g style="fill:#000000; fill-opacity:1.0; 
stroke:#000000; stroke-width:39.3701; stroke-opacity:1; 
stroke-linecap:round; stroke-linejoin:round;">
</g>
<g style="fill:#000000; fill-opacity:1.0; 
stroke:#000000; stroke-width:0; stroke-opacity:1; 
stroke-linecap:round; stroke-linejoin:round;">
<circle cx="8511.15" cy="5761.81" r="118.11" /> 
</g>
<g style="fill:#000000; fill-opacity:1.0; 
stroke:#000000; stroke-width:39.3701; stroke-opacity:1; 
stroke-linecap:round; stroke-linejoin:round;">
</g>
<g style="fill:#000000; fill-opacity:1.0; 
stroke:#000000; stroke-width:0; stroke-opacity:1; 
stroke-linecap:round; stroke-linejoin:round;">
<circle cx="8538.71" cy="13234.3" r="118.11" /> 
</g>
<g style="fill:#000000; fill-opacity:1.0; 
stroke:#000000; stroke-width:39.3701; stroke-opacity:1; 
stroke-linecap:round; stroke-linejoin:round;">
</g>
<g style="fill:#000000; fill-opacity:1.0; 
stroke:#000000; stroke-width:0; stroke-opacity:1; 
stroke-linecap:round; stroke-linejoin:round;">
<circle cx="10761.2" cy="14011.8" r="118.11" /> 
</g>
<g style="fill:#000000; fill-opacity:1.0; 
stroke:#000000; stroke-width:39.3701; stroke-opacity:1; 
stroke-linecap:round; stroke-linejoin:round;">
</g>
<g style="fill:#000000; fill-opacity:1.0; 
stroke:#000000; stroke-width:0; stroke-opacity:1; 
stroke-linecap:round; stroke-linejoin:round;">
<circle cx="12761.2" cy="11511.8" r="118.11" /> 
</g>
<g style="fill:#000000; fill-opacity:1.0; 
stroke:#000000; stroke-width:39.3701; stroke-opacity:1; 
stroke-linecap:round; stroke-linejoin:round;">
</g>
<g style="fill:#000000; fill-opacity:1.0; 
stroke:#000000; stroke-width:98.4252; stroke-opacity:1; 
stroke-linecap:round; stroke-linejoin:round;">
</g>
<g style="fill:#000000; fill-opacity:0.0; 
stroke:#000000; stroke-width:98.4252; stroke-opacity:1; 
stroke-linecap:round; stroke-linejoin:round;">
<path d="M19011 5761
L19011 5511
" />
<path d="M19011 5261
L19011 5761
" />
<path d="M19261 5011
L19011 5261
" />
<path d="M18761 5761
L18761 5511
" />
<path d="M18761 5011
L18761 5761
" />
<path d="M18261 5761
L18511 5511
" />
<path d="M18511 5011
L18511 5511
" />
<path d="M16918 8179
L16918 8854
" />
<path d="M16918 8854
L16761 9011
" />
</g>
<g style="fill:#000000; fill-opacity:0.0; 
stroke:#000000; stroke-width:393.701; stroke-opacity:1; 
stroke-linecap:round; stroke-linejoin:round;">
<path d="M13011 8253
L14261 8253
" />
<path d="M14261 7011
L14511 6761
" />
<path d="M14511 6761
L19011 6761
" />
<path d="M19011 6761
L19511 7261
" />
<path d="M19511 7261
L19511 11961
" />
<path d="M19511 11961
L18911 12561
" />
<path d="M14261 8261
L14261 7011
" />
<path d="M14261 8253
L14261 8261
" />
<path d="M19011 14019
L19003 14019
" />
<path d="M19003 14019
L18511 14511
" />
<path d="M15070 14952
L15070 17761
" />
<path d="M15511 14511
L15070 14952
" />
<path d="M18511 14511
L15511 14511
" />
<path d="M18911 12561
L18911 13919
" />
<path d="M18911 13919
L19011 14019
" />
<path d="M14761 4261
L14761 4511
" />
<path d="M14761 4511
L14761 6011
" />
<path d="M16261 4261
L16261 6011
" />
</g>
<g style="fill:#000000; fill-opacity:0.0; 
stroke:#000000; stroke-width:98.4252; stroke-opacity:1; 
stroke-linecap:round; stroke-linejoin:round;">
<path d="M8761 7511
L8761 6011
" />
<path d="M8761 6011
L8511 5761
" />
<path d="M8853 7604
L8761 7511
" />
<path d="M8853 8088
L8853 7604
" />
<path d="M8538 11435
L8538 13234
" />
<path d="M8538 13234
L8511 13261
" />
<path d="M10761 12761
L10761 13511
" />
<path d="M10761 13511
L10761 14011
" />
<path d="M9168 13669
L9511 14011
" />
<path d="M9511 14011
L10261 14011
" />
<path d="M10261 14011
L10761 13511
" />
<path d="M9168 11435
L9168 13669
" />
<path d="M8853 8088
L8853 8501
" />
<path d="M8853 8501
L8538 8816
" />
<path d="M8538 8816
L8538 11021
" />
<path d="M8538 11021
L8538 11435
" />
<path d="M17111 12561
L17111 13669
" />
<path d="M17111 13669
L17019 13761
" />
<path d="M15383 8179
L15383 7389
" />
<path d="M15383 7389
L15511 7261
" />
<path d="M19011 7761
L19011 11261
" />
<path d="M18761 11511
L17511 11511
" />
<path d="M15511 7261
L18511 7261
" />
<path d="M18511 7261
L19011 7761
" />
<path d="M19011 11261
L18761 11511
" />
<path d="M17511 11511
L17111 11911
" />
<path d="M17111 11911
L17111 12561
" />
<path d="M4554 13702
L4554 11261
" />
<path d="M2511 8761
L2011 8261
" />
<path d="M3511 8761
L2511 8761
" />
<path d="M4554 11261
L4554 9805
" />
<path d="M4554 9805
L3511 8761
" />
<path d="M9798 8088
L9798 9974
" />
<path d="M9798 9974
L9011 10761
" />
<path d="M15511 11511
L13861 11511
" />
<path d="M13861 11511
L13761 11511
" />
<path d="M12761 11511
L13861 11511
" />
<path d="M8853 11435
L8853 10919
" />
<path d="M8853 10919
L9011 10761
" />
<path d="M9011 10761
L9311 10761
" />
<path d="M9311 10761
L9483 10934
" />
<path d="M9483 10934
L9483 11435
" />
<path d="M12229 14511
L9511 14511
" />
<path d="M9511 14511
L8853 13854
" />
<path d="M8853 13854
L8853 11919
" />
<path d="M8853 11919
L8853 11435
" />
<path d="M12229 14511
L12229 14866
" />
<path d="M12229 14866
L12761 15397
" />
<path d="M12761 15397
L12761 17011
" />
<path d="M12761 17011
L12511 17261
" />
<path d="M12511 17261
L12011 17261
" />
<path d="M18011 9961
L17061 9961
" />
<path d="M12269 14511
L12229 14511
" />
<path d="M17061 9961
L15511 11511
" />
<path d="M13761 11511
L12761 12511
" />
<path d="M12761 12511
L12761 14019
" />
<path d="M12761 14019
L12269 14511
" />
<path d="M18011 12561
L18011 13753
" />
<path d="M18011 13753
L18003 13761
" />
<path d="M15895 8179
L15895 7736
" />
<path d="M15895 7736
L16119 7511
" />
<path d="M16119 7511
L17761 7511
" />
<path d="M17761 7511
L18011 7761
" />
<path d="M18011 7761
L18011 9961
" />
<path d="M3011 14261
L3011 11261
" />
<path d="M3509 14760
L3011 14261
" />
<path d="M3509 14761
L3509 14760
" />
<path d="M4011 15761
L4011 15263
" />
<path d="M4011 15263
L3509 14761
" />
<path d="M4261 17261
L4011 17011
" />
<path d="M4011 17011
L4011 15761
" />
<path d="M10011 17261
L4261 17261
" />
<path d="M11011 17261
L10011 17261
" />
<path d="M12011 17261
L11011 17261
" />
<path d="M18003 12569
L18011 12561
" />
<path d="M10684 8659
L10684 7435
" />
<path d="M10684 7435
L10011 6761
" />
<path d="M9511 7147
L9511 6351
" />
<path d="M9511 6351
L9568 6293
" />
<path d="M9568 6293
L10543 6293
" />
<path d="M10543 6293
L10671 6421
" />
<path d="M10671 6421
L11011 6761
" />
<path d="M10113 8088
L10113 7749
" />
<path d="M10113 7749
L9511 7147
" />
<path d="M11011 6012
L11011 5761
" />
<path d="M11479 6480
L11011 6012
" />
<path d="M11479 8593
L11479 6480
" />
<path d="M11097 8974
L11479 8593
" />
<path d="M10684 8974
L11097 8974
" />
<path d="M6011 10576
L6011 11261
" />
<path d="M7011 14840
L7011 15761
" />
<path d="M6011 13702
L6011 13840
" />
<path d="M6011 13840
L7011 14840
" />
<path d="M1261 4511
L1261 3761
" />
<path d="M11671 6421
L12011 6761
" />
<path d="M1261 3761
L1511 3511
" />
<path d="M1511 3511
L9761 3511
" />
<path d="M11543 6293
L11671 6421
" />
<path d="M9761 3511
L11543 5293
" />
<path d="M11543 5293
L11543 6293
" />
<path d="M6668 9919
L1261 4511
" />
<path d="M6668 9919
L6011 10576
" />
<path d="M7337 9919
L6668 9919
" />
<path d="M13292 14511
L13332 14511
" />
<path d="M13332 14511
L13761 14082
" />
<path d="M13761 14082
L13761 13503
" />
<path d="M13761 13503
L13761 13011
" />
<path d="M7908 11435
L7908 14114
" />
<path d="M7908 14114
L9306 15511
" />
<path d="M9306 15511
L10761 15511
" />
<path d="M10761 15511
L11011 15761
" />
<path d="M11011 15761
L11011 16261
" />
<path d="M12011 16261
L12011 15823
" />
<path d="M12011 15823
L11449 15261
" />
<path d="M9761 15261
L8223 13724
" />
<path d="M11449 15261
L9761 15261
" />
<path d="M8223 13724
L8223 11435
" />
<path d="M9798 11435
L9798 12740
" />
<path d="M9798 12740
L9776 12761
" />
<path d="M10113 11435
L11434 11435
" />
<path d="M11745 11746
L11745 12761
" />
<path d="M11434 11435
L11745 11746
" />
<path d="M16662 8179
L16662 8622
" />
<path d="M16662 8622
L14420 10864
" />
<path d="M14420 10864
L11097 10864
" />
<path d="M11097 10864
L10684 10864
" />
<path d="M6908 8659
L5011 6761
" />
<path d="M7337 8659
L6908 8659
" />
<path d="M5011 6761
L5011 4261
" />
<path d="M5011 4760
L5011 4261
" />
<path d="M16406 8179
L16406 8622
" />
<path d="M16406 8622
L14479 10549
" />
<path d="M14479 10549
L11097 10549
" />
<path d="M11097 10549
L10684 10549
" />
<path d="M7908 7159
L6011 5261
" />
<path d="M6011 5261
L6011 4261
" />
<path d="M7908 8088
L7908 7159
" />
<path d="M10684 10234
L14538 10234
" />
<path d="M14538 10234
L16150 8622
" />
<path d="M16150 8622
L16150 8179
" />
<path d="M10684 9919
L13830 9919
" />
<path d="M13830 9919
L15127 8622
" />
<path d="M15127 8622
L15127 8179
" />
<path d="M10684 9604
L13889 9604
" />
<path d="M13889 9604
L14871 8622
" />
<path d="M14871 8622
L14871 8179
" />
<path d="M14615 8179
L14615 8622
" />
<path d="M14615 8622
L13948 9289
" />
<path d="M13948 9289
L10684 9289
" />
<path d="M9011 6922
L9011 4760
" />
<path d="M9483 8088
L9483 7395
" />
<path d="M9483 7395
L9011 6922
" />
<path d="M9011 4760
L9011 4261
" />
<path d="M8011 6511
L8538 7038
" />
<path d="M8011 4261
L8011 6511
" />
<path d="M8538 7675
L8538 8088
" />
<path d="M8538 7038
L8538 7675
" />
<path d="M8223 6974
L7011 5761
" />
<path d="M7011 5761
L7011 4261
" />
<path d="M8223 8088
L8223 6974
" />
<path d="M6924 8974
L4011 6061
" />
<path d="M7337 8974
L6924 8974
" />
<path d="M4011 6061
L4011 4760
" />
<path d="M4011 4760
L4011 4261
" />
<path d="M6924 9289
L3011 5375
" />
<path d="M7337 9289
L6924 9289
" />
<path d="M3011 5375
L3011 4760
" />
<path d="M3011 4760
L3011 4261
" />
<path d="M6855 9604
L2011 4760
" />
<path d="M7337 9604
L6855 9604
" />
<path d="M2011 4760
L2011 4261
" />
<path d="M5261 11710
L5261 10073
" />
<path d="M5261 10073
L3449 8261
" />
<path d="M7337 10234
L6924 10234
" />
<path d="M6924 10234
L6511 10647
" />
<path d="M6511 10647
L6511 11562
" />
<path d="M5812 12261
L5261 12812
" />
<path d="M5261 15511
L5011 15761
" />
<path d="M5261 12812
L5261 15511
" />
<path d="M3449 8261
L3011 8261
" />
<path d="M6511 11562
L5812 12261
" />
<path d="M5812 12261
L5261 11710
" />
<path d="M6761 10712
L6761 11761
" />
<path d="M7337 10549
L6924 10549
" />
<path d="M6924 10549
L6761 10712
" />
<path d="M5511 13011
L5511 14261
" />
<path d="M5511 14261
L6011 14761
" />
<path d="M6761 11761
L5511 13011
" />
<path d="M6011 14761
L6011 15263
" />
<path d="M6011 15263
L6011 15761
" />
<path d="M2011 11261
L2511 10761
" />
<path d="M2511 10761
L3203 10761
" />
<path d="M3203 10761
L3761 11319
" />
<path d="M4543 16293
L4761 16511
" />
<path d="M3761 11319
L3761 14011
" />
<path d="M3761 14011
L4543 14793
" />
<path d="M4543 14793
L4543 16293
" />
<path d="M4761 16511
L5761 16511
" />
<path d="M5761 16511
L6011 16261
" />
<path d="M6011 16261
L6011 15761
" />
<path d="M10011 16261
L9512 16261
" />
<path d="M9512 16261
L7337 14087
" />
<path d="M7337 14087
L7337 11070
" />
<path d="M7337 11070
L7337 10864
" />
</g>
<g style="fill:#000000; fill-opacity:0.0; 
stroke:#000000; stroke-width:393.701; stroke-opacity:1; 
stroke-linecap:round; stroke-linejoin:round;">
<path d="M16761 5511
L16761 4511
" />
<path d="M18511 2761
L18511 2261
" />
<path d="M16761 4511
L18511 2761
" />
<path d="M16542 2261
L16542 3230
" />
<path d="M15761 4011
L15761 5511
" />
<path d="M16542 3230
L15761 4011
" />
<path d="M15261 5511
L15261 4011
" />
<path d="M14511 3261
L14511 2261
" />
<path d="M15261 4011
L14511 3261
" />
<path d="M14261 5511
L14261 4511
" />
<path d="M12542 2793
L12542 2261
" />
<path d="M14261 4511
L12542 2793
" />
</g>
<g style="fill:#000000; fill-opacity:1.0; 
stroke:#000000; stroke-width:100; stroke-opacity:1; 
stroke-linecap:round; stroke-linejoin:round;">
<polyline style="fill-rule:evenodd;"
points="20231,19482
1290,19482
1290,18403
9378,18403
9379,18409
9479,18616
9651,18770
9868,18846
9961,18789
9961,18311
10061,18311
10061,18789
10153,18846
10371,18770
10511,18645
10651,18770
10868,18846
10961,18789
10961,18311
11061,18311
11061,18789
11153,18846
11371,18770
11511,18645
11651,18770
11868,18846
11961,18789
11961,18311
12061,18311
12061,18789
12153,18846
12371,18770
12542,18616
12642,18409
12643,18403
12596,18311
12061,18311
11961,18311
11061,18311
10961,18311
10061,18311
9961,18311
9426,18311
9378,18403
1290,18403
1290,15874
1421,15874
1421,16211
1459,16303
1529,16373
1621,16411
1898,16411
1961,16349
1961,15811
1483,15811
1421,15874
1290,15874
1290,15312
1421,15312
1421,15649
1483,15711
1961,15711
1961,15174
1898,15111
1621,15111
1529,15149
1459,15220
1421,15312
1290,15312
1290,8120
1438,8120
1485,8211
1961,8211
1961,7736
1869,7688
1706,7756
1536,7912
1438,8120
1290,8120
1290,4964
6245,9919
5799,10365
5734,10462
5711,10576
5711,10668
5701,10670
5616,10724
5560,10807
5560,10073
5551,10027
5537,9958
5472,9861
3661,8050
3606,8013
3606,7921
3588,7829
3533,7744
3450,7686
3351,7666
2671,7666
2578,7684
2493,7739
2436,7822
2428,7859
2316,7756
2152,7688
2061,7736
2061,8211
2069,8211
2069,8311
2061,8311
2061,8319
1961,8319
1961,8311
1485,8311
1438,8403
1536,8611
1700,8761
1593,8833
1466,9024
1421,9250
1421,9273
1466,9499
1593,9690
1700,9761
1593,9833
1466,10024
1421,10250
1421,10273
1466,10499
1593,10690
1700,10761
1593,10833
1466,11024
1421,11250
1421,11273
1466,11499
1593,11690
1785,11818
2011,11863
2236,11818
2428,11690
2511,11566
2593,11690
2711,11769
2711,14261
2734,14376
2799,14473
3294,14968
3298,14973
3595,15270
3593,15271
3511,15395
3428,15271
3236,15143
3011,15099
2785,15143
2593,15271
2588,15280
2563,15220
2492,15149
2400,15111
2123,15111
2061,15174
2061,15711
2069,15711
2069,15811
2061,15811
2061,16349
2123,16411
2400,16411
2492,16373
2563,16303
2588,16243
2593,16251
2785,16379
3011,16424
3236,16379
3428,16251
3511,16127
3593,16251
3711,16330
3711,17011
3734,17126
3799,17223
4049,17473
4146,17538
4261,17561
9442,17561
9521,17679
9643,17760
9479,17906
9379,18114
9378,18120
9426,18211
9961,18211
9961,18203
10061,18203
10061,18211
10961,18211
10961,18203
11061,18203
11061,18211
11961,18211
11961,18203
12061,18203
12061,18211
12596,18211
12643,18120
12642,18114
12542,17906
12379,17760
12501,17679
12590,17545
12625,17538
12722,17473
12972,17223
13037,17126
13060,17011
13060,15397
13043,15312
13037,15283
12972,15186
12716,14929
12759,14866
12760,14861
12814,14945
12898,15002
12997,15022
13587,15022
13680,15005
13765,14950
13822,14866
13842,14767
13842,14424
13972,14294
14037,14197
14060,14082
14060,13660
14135,13660
14227,13642
14312,13588
14369,13504
14377,13465
14392,13451
14428,13554
14661,13640
14909,13630
15093,13554
15124,13466
16473,13466
16473,13649
16536,13711
16969,13711
16969,13328
16906,13265
16674,13265
16582,13303
16511,13374
16473,13466
15124,13466
15129,13451
14761,13082
14755,13088
14684,13017
14690,13011
14831,13011
15200,13380
15303,13344
15389,13111
15379,12863
15303,12679
15289,12674
16661,12674
16661,13011
16699,13103
16769,13173
16861,13211
16998,13211
17061,13149
17061,12611
16723,12611
16661,12674
15289,12674
15200,12643
14831,13011
14690,13011
14684,13006
14755,12935
14761,12941
15129,12572
15093,12469
14860,12383
14612,12393
14428,12469
14392,12572
14378,12558
14372,12525
14317,12440
14234,12383
14135,12363
13387,12363
13320,12375
13584,12112
16661,12112
16661,12449
16723,12511
17061,12511
17061,11974
16998,11911
16861,11911
16769,11949
16699,12020
16661,12112
13584,12112
13885,11811
15511,11811
15625,11788
15722,11723
17043,10402
17053,10454
17108,10539
17191,10596
17291,10616
18731,10616
18823,10599
18908,10544
18965,10460
18986,10361
18986,9561
18968,9469
18913,9384
18830,9326
18731,9306
18310,9306
18310,7761
18287,7647
18222,7550
17972,7300
17875,7235
17761,7212
16119,7212
16004,7235
15907,7300
15683,7524
15646,7579
15550,7579
15522,7585
15521,7584
15489,7584
15481,7592
15457,7597
15382,7645
15315,7599
15285,7593
15276,7584
15244,7584
15243,7585
15215,7579
15038,7579
14997,7587
14959,7579
14782,7579
14741,7587
14708,7580
14708,7208
18826,7208
19064,7446
19064,11776
18934,11906
18711,11906
18618,11924
18533,11979
18476,12062
18461,12136
18448,12069
18393,11984
18310,11926
18211,11906
17811,11906
17718,11924
17633,11979
17576,12062
17561,12137
17561,12112
17523,12020
17452,11949
17360,11911
17223,11911
17161,11974
17161,12511
17169,12511
17169,12611
17161,12611
17161,13149
17223,13211
17360,13211
17452,13173
17523,13103
17561,13011
17561,12987
17573,13054
17628,13139
17711,13196
17711,13260
17708,13260
17615,13278
17530,13333
17511,13359
17455,13303
17364,13265
17131,13265
17069,13328
17069,13711
17076,13711
17076,13811
17069,13811
17069,13819
16969,13819
16969,13811
16536,13811
16473,13874
16473,14057
16476,14064
15511,14064
15340,14098
15210,14185
15195,14195
14754,14636
14657,14781
14623,14952
14623,16817
14381,16817
14288,16835
14203,16890
14146,16973
14126,17072
14126,18450
14143,18543
14198,18628
14281,18685
14381,18705
15759,18705
15851,18688
15936,18633
15993,18549
16014,18450
16014,17874
16493,17874
16493,18500
16531,18592
16601,18662
16693,18700
17319,18700
17382,18638
17382,17811
17482,17811
17482,18638
17544,18700
18170,18700
18262,18662
18333,18592
18371,18500
18371,17874
18308,17811
17482,17811
17382,17811
16555,17811
16493,17874
16014,17874
16014,17072
15996,16980
15941,16895
15877,16850
16138,16850
16201,16788
16201,15961
16301,15961
16301,16788
16363,16850
16625,16850
16601,16860
16531,16931
16493,17023
16493,17649
16555,17711
17382,17711
17382,16885
17482,16885
17482,17711
18308,17711
18371,17649
18371,17023
18333,16931
18262,16860
18170,16822
17544,16822
17482,16885
17382,16885
17319,16822
17057,16822
17081,16812
17152,16742
17190,16650
17190,16024
17127,15961
16301,15961
16201,15961
16193,15961
16193,15861
16201,15861
16201,15035
16301,15035
16301,15861
17127,15861
17190,15799
17190,15616
18265,15616
18265,15848
18303,15940
18373,16011
18465,16049
18648,16049
18711,15986
18711,15553
18811,15553
18811,15986
18873,16049
19056,16049
19148,16011
19219,15940
19257,15848
19257,15616
19194,15553
18811,15553
18711,15553
18327,15553
18265,15616
17190,15616
17190,15173
17152,15081
17081,15010
16989,14972
16363,14972
16301,15035
16201,15035
16138,14972
15682,14972
15696,14958
18310,14958
18332,14992
18359,15011
18303,15067
18265,15158
18265,15391
18327,15453
18711,15453
18711,15446
18811,15446
18811,15453
19194,15453
19257,15391
19257,15158
19219,15067
19163,15011
19184,14997
19242,14914
19262,14814
19262,14392
19303,14351
19327,14335
19423,14190
19458,14019
19423,13848
19358,13749
19358,13001
19366,12961
19366,12738
19827,12277
19923,12132
19928,12112
19958,11961
19958,7261
19923,7090
19827,6945
19327,6445
19291,6421
19182,6348
19011,6314
14511,6314
14340,6348
14195,6445
13945,6695
13848,6840
13814,7011
13814,7685
13780,7735
13765,7807
13456,7807
13439,7780
13413,7762
13469,7706
13507,7614
13507,7382
13444,7319
13061,7319
13061,7327
12961,7327
12961,7319
12577,7319
12515,7382
12515,7614
12553,7706
12608,7762
12587,7775
12530,7859
12510,7958
12510,8549
12527,8641
12582,8726
12665,8784
12765,8804
13257,8804
13349,8786
13434,8731
13456,8700
13832,8700
13832,8701
13915,8758
14015,8778
14035,8778
13824,8990
11505,8990
11690,8804
11755,8707
11778,8593
11778,7313
11785,7318
12011,7363
12236,7318
12428,7190
12515,7060
12515,7157
12577,7219
12961,7219
12961,6786
13061,6786
13061,7219
13444,7219
13507,7157
13507,6924
13469,6832
13398,6762
13306,6724
13123,6724
13061,6786
12961,6786
12898,6724
12715,6724
12623,6762
12598,6787
12601,6773
12601,6750
12556,6524
12428,6333
12321,6261
12486,6111
12583,5903
12536,5811
12061,5811
12061,5819
11961,5819
11961,5811
11953,5811
11953,5711
11961,5711
11961,5236
12061,5236
12061,5711
12536,5711
12583,5620
12486,5412
12316,5256
12152,5188
12061,5236
11961,5236
11869,5188
11825,5207
11819,5179
11754,5082
9972,3300
9875,3235
9761,3212
1511,3212
1396,3235
1299,3300
1290,3309
1290,698
1655,698
1655,3206
9866,3206
9866,2408
11800,2408
11913,2681
12113,2882
12129,2964
12193,3059
12226,3109
13814,4696
13814,4851
13780,4900
13760,5000
13760,5688
13777,5781
13832,5866
13915,5923
14015,5943
14186,5943
14261,5958
14335,5943
14448,5943
14476,5938
14477,5938
14508,5938
14516,5930
14540,5926
14617,5877
14641,5900
14714,5931
14722,5938
14764,5938
14772,5931
14845,5900
14870,5876
14939,5923
14968,5929
14978,5938
15009,5938
15011,5938
15038,5943
15186,5943
15261,5958
15335,5943
15471,5943
15512,5936
15550,5943
15686,5943
15761,5958
15835,5943
15983,5943
16011,5938
16012,5938
16044,5938
16052,5930
16076,5926
16152,5877
16176,5900
16250,5931
16257,5938
16300,5938
16307,5931
16381,5900
16405,5876
16474,5923
16504,5929
16513,5938
16545,5938
16546,5938
16574,5943
16686,5943
16761,5958
16835,5943
17007,5943
17099,5926
17184,5871
17242,5788
17247,5761
17961,5761
17984,5876
18049,5973
18146,6038
18261,6061
18375,6038
18472,5973
18518,5927
18549,5973
18646,6038
18761,6061
18875,6038
18886,6031
18896,6038
19011,6061
19125,6038
19222,5973
19287,5876
19310,5761
19310,5385
19472,5223
19537,5126
19560,5011
19537,4897
19472,4800
19375,4735
19261,4712
19146,4735
19049,4800
19003,4846
18972,4800
18875,4735
18761,4712
18646,4735
18636,4742
18625,4735
18511,4712
18396,4735
18299,4800
18234,4897
18211,5011
18211,5387
18049,5550
17984,5647
17961,5761
17247,5761
17262,5688
17262,5000
17244,4907
17208,4850
17208,4696
18827,3077
18839,3059
18873,3008
19003,3008
19095,2991
19181,2936
19238,2853
19258,2753
19258,1769
19240,1677
19185,1591
19102,1534
19003,1514
18019,1514
17926,1532
17841,1586
17784,1670
17764,1769
17764,2753
17781,2846
17786,2854
16445,4195
16348,4340
16314,4511
16314,4760
16307,4757
16300,4750
16257,4750
16250,4757
16208,4775
16208,4196
16858,3546
16881,3511
16955,3401
16989,3230
16989,2864
17171,2682
17284,2410
17284,2114
17172,1841
16963,1633
16690,1519
16395,1519
16122,1632
15913,1840
15800,2113
15800,2408
15913,2681
16095,2864
16095,3045
15511,3629
14958,3076
14958,3008
15003,3008
15095,2991
15181,2936
15238,2853
15258,2753
15258,1769
15240,1677
15185,1591
15102,1534
15003,1514
14019,1514
13926,1532
13841,1586
13784,1670
13764,1769
13764,2753
13781,2846
13836,2931
13919,2988
14019,3008
14064,3008
14064,3261
14098,3432
14186,3564
14195,3577
14814,4196
14814,4775
14772,4757
14764,4750
14722,4750
14714,4757
14708,4760
14708,4511
14673,4340
14577,4195
13117,2736
13171,2682
13284,2410
13284,2114
13172,1841
12963,1633
12690,1519
12395,1519
12122,1632
11913,1840
11800,2113
11800,2408
9866,2408
9866,698
1655,698
1290,698
1290,541
20231,541
20231,19482
" /> 
<polyline style="fill-rule:evenodd;"
points="4961,10197
4961,10744
4912,10695
4820,10657
4666,10657
4604,10719
4604,11211
4612,11211
4612,11311
4604,11311
4604,11803
4666,11866
4820,11866
4912,11828
4973,11767
4984,11825
5049,11922
5389,12261
5049,12601
4984,12698
4961,12812
4961,13185
4912,13136
4820,13098
4666,13098
4604,13160
4604,13652
4612,13652
4612,13752
4604,13752
4604,14244
4666,14307
4820,14307
4912,14269
4961,14219
4961,15108
4842,15132
4842,14793
4819,14679
4754,14582
4460,14288
4504,14244
4504,13752
4150,13752
4087,13815
4087,13915
4060,13887
4060,13298
4087,13298
4087,13590
4150,13652
4504,13652
4504,13160
4441,13098
4288,13098
4196,13136
4125,13206
4087,13298
4060,13298
4060,11374
4087,11374
4087,11665
4125,11757
4196,11828
4288,11866
4441,11866
4504,11803
4504,11311
4150,11311
4087,11374
4060,11374
4060,11319
4037,11204
3972,11107
3722,10857
4087,10857
4087,11149
4150,11211
4504,11211
4504,10719
4441,10657
4288,10657
4196,10695
4125,10765
4087,10857
3722,10857
3479,10614
3556,10499
3601,10273
3601,10250
3556,10024
3428,9833
3321,9761
3428,9690
3556,9499
3601,9273
3601,9250
3556,9024
3433,8841
3443,8839
3528,8784
3537,8772
4961,10197
" /> 
<polyline style="fill-rule:evenodd;"
points="12552,11199
12449,11303
12393,11438
12392,11584
12448,11720
12552,11823
12687,11879
12834,11879
12969,11824
12982,11811
13038,11811
12549,12300
12484,12397
12461,12511
12461,13895
12356,14001
11934,14001
11841,14018
11756,14073
11699,14156
11688,14212
9635,14212
9152,13730
9152,11913
9168,11890
9192,11927
9243,11962
9281,12000
9285,12000
9285,13549
9303,13641
9357,13726
9441,13784
9540,13804
10013,13804
10105,13786
10190,13731
10247,13648
10250,13635
10273,13690
10343,13761
10435,13799
10648,13799
10711,13736
10711,12811
10703,12811
10703,12711
10711,12711
10711,12703
10811,12703
10811,12711
10819,12711
10819,12811
10811,12811
10811,13736
10873,13799
11086,13799
11178,13761
11248,13690
11270,13637
11271,13641
11326,13726
11410,13784
11509,13804
11981,13804
12074,13786
12159,13731
12216,13648
12236,13549
12236,11974
12219,11881
12164,11796
12080,11739
12041,11731
12021,11631
11956,11534
11645,11223
11556,11163
12640,11163
12552,11199
" /> 
<polyline style="fill-rule:evenodd;"
points="8554,11914
8554,13631
8522,13600
8522,11913
8538,11890
8554,11914
" /> 
<polyline style="fill-rule:evenodd;"
points="8877,8581
8928,8616
8966,8653
9011,8653
9019,8650
9060,8658
9276,8658
9327,8648
9375,8658
9499,8658
9499,9850
8642,10707
8577,10804
8554,10919
8554,10956
8538,10979
8514,10942
8463,10907
8426,10870
8380,10870
8372,10873
8332,10865
8115,10865
8064,10874
8017,10865
7907,10865
7907,10755
7898,10704
7907,10657
7907,10440
7898,10389
7907,10342
7907,10125
7898,10074
7907,10027
7907,9811
7898,9760
7907,9712
7907,9496
7898,9445
7907,9397
7907,9181
7898,9130
7907,9082
7907,8866
7898,8815
7907,8767
7907,8658
8017,8658
8068,8648
8115,8658
8332,8658
8383,8648
8430,8658
8646,8658
8688,8650
8695,8653
8741,8653
8779,8615
8824,8586
8853,8543
8877,8581
" /> 
<polyline style="fill-rule:evenodd;"
points="9184,7518
9060,7518
9018,7526
9011,7523
8966,7523
8928,7561
8882,7590
8853,7633
8837,7608
8837,7172
9184,7518
" /> 
<polyline style="fill-rule:evenodd;"
points="8433,4754
8488,4839
8571,4896
8671,4916
8711,4916
8711,6788
8310,6387
8310,4830
8428,4751
8432,4746
8433,4754
" /> 
</g>
<g style="fill:#FFFFFF; fill-opacity:1.0; 
stroke:#FFFFFF; stroke-width:100; stroke-opacity:1; 
stroke-linecap:round; stroke-linejoin:round;">
</g>
<g style="fill:#FFFFFF; fill-opacity:1.0; 
stroke:#FFFFFF; stroke-width:0; stroke-opacity:1; 
stroke-linecap:round; stroke-linejoin:round;">
<circle cx="19511.2" cy="9011.81" r="78.7402" /> 
</g>
<g style="fill:#FFFFFF; fill-opacity:1.0; 
stroke:#FFFFFF; stroke-width:39.3701; stroke-opacity:1; 
stroke-linecap:round; stroke-linejoin:round;">
</g>
<g style="fill:#FFFFFF; fill-opacity:1.0; 
stroke:#FFFFFF; stroke-width:0; stroke-opacity:1; 
stroke-linecap:round; stroke-linejoin:round;">
<circle cx="16761.2" cy="9011.81" r="78.7402" /> 
</g>
<g style="fill:#FFFFFF; fill-opacity:1.0; 
stroke:#FFFFFF; stroke-width:39.3701; stroke-opacity:1; 
stroke-linecap:round; stroke-linejoin:round;">
</g>
<g style="fill:#FFFFFF; fill-opacity:1.0; 
stroke:#FFFFFF; stroke-width:0; stroke-opacity:1; 
stroke-linecap:round; stroke-linejoin:round;">
<circle cx="8511.15" cy="5761.81" r="78.7402" /> 
</g>
<g style="fill:#FFFFFF; fill-opacity:1.0; 
stroke:#FFFFFF; stroke-width:39.3701; stroke-opacity:1; 
stroke-linecap:round; stroke-linejoin:round;">
</g>
<g style="fill:#FFFFFF; fill-opacity:1.0; 
stroke:#FFFFFF; stroke-width:0; stroke-opacity:1; 
stroke-linecap:round; stroke-linejoin:round;">
<circle cx="8538.71" cy="13234.3" r="78.7402" /> 
</g>
<g style="fill:#FFFFFF; fill-opacity:1.0; 
stroke:#FFFFFF; stroke-width:39.3701; stroke-opacity:1; 
stroke-linecap:round; stroke-linejoin:round;">
</g>
<g style="fill:#FFFFFF; fill-opacity:1.0; 
stroke:#FFFFFF; stroke-width:0; stroke-opacity:1; 
stroke-linecap:round; stroke-linejoin:round;">
<circle cx="10761.2" cy="14011.8" r="78.7402" /> 
</g>
<g style="fill:#FFFFFF; fill-opacity:1.0; 
stroke:#FFFFFF; stroke-width:39.3701; stroke-opacity:1; 
stroke-linecap:round; stroke-linejoin:round;">
</g>
<g style="fill:#FFFFFF; fill-opacity:1.0; 
stroke:#FFFFFF; stroke-width:0; stroke-opacity:1; 
stroke-linecap:round; stroke-linejoin:round;">
<circle cx="12761.2" cy="11511.8" r="78.7402" /> 
</g>
<g style="fill:#FFFFFF; fill-opacity:1.0; 
stroke:#FFFFFF; stroke-width:39.3701; stroke-opacity:1; 
stroke-linecap:round; stroke-linejoin:round;">
</g>
<g style="fill:#FFFFFF; fill-opacity:1.0; 
stroke:#FFFFFF; stroke-width:0; stroke-opacity:1; 
stroke-linecap:round; stroke-linejoin:round;">
<circle cx="9011.15" cy="4261.81" r="200" /> 
</g>
<g style="fill:#FFFFFF; fill-opacity:1.0; 
stroke:#FFFFFF; stroke-width:39.3701; stroke-opacity:1; 
stroke-linecap:round; stroke-linejoin:round;">
</g>
<g style="fill:#FFFFFF; fill-opacity:1.0; 
stroke:#FFFFFF; stroke-width:0; stroke-opacity:1; 
stroke-linecap:round; stroke-linejoin:round;">
<circle cx="8011.15" cy="4261.81" r="200" /> 
</g>
<g style="fill:#FFFFFF; fill-opacity:1.0; 
stroke:#FFFFFF; stroke-width:39.3701; stroke-opacity:1; 
stroke-linecap:round; stroke-linejoin:round;">
</g>
<g style="fill:#FFFFFF; fill-opacity:1.0; 
stroke:#FFFFFF; stroke-width:0; stroke-opacity:1; 
stroke-linecap:round; stroke-linejoin:round;">
<circle cx="7011.15" cy="4261.81" r="200" /> 
</g>
<g style="fill:#FFFFFF; fill-opacity:1.0; 
stroke:#FFFFFF; stroke-width:39.3701; stroke-opacity:1; 
stroke-linecap:round; stroke-linejoin:round;">
</g>
<g style="fill:#FFFFFF; fill-opacity:1.0; 
stroke:#FFFFFF; stroke-width:0; stroke-opacity:1; 
stroke-linecap:round; stroke-linejoin:round;">
<circle cx="6011.15" cy="4261.81" r="200" /> 
</g>
<g style="fill:#FFFFFF; fill-opacity:1.0; 
stroke:#FFFFFF; stroke-width:39.3701; stroke-opacity:1; 
stroke-linecap:round; stroke-linejoin:round;">
</g>
<g style="fill:#FFFFFF; fill-opacity:1.0; 
stroke:#FFFFFF; stroke-width:0; stroke-opacity:1; 
stroke-linecap:round; stroke-linejoin:round;">
<circle cx="5011.15" cy="4261.81" r="200" /> 
</g>
<g style="fill:#FFFFFF; fill-opacity:1.0; 
stroke:#FFFFFF; stroke-width:39.3701; stroke-opacity:1; 
stroke-linecap:round; stroke-linejoin:round;">
</g>
<g style="fill:#FFFFFF; fill-opacity:1.0; 
stroke:#FFFFFF; stroke-width:0; stroke-opacity:1; 
stroke-linecap:round; stroke-linejoin:round;">
<circle cx="4011.15" cy="4261.81" r="200" /> 
</g>
<g style="fill:#FFFFFF; fill-opacity:1.0; 
stroke:#FFFFFF; stroke-width:39.3701; stroke-opacity:1; 
stroke-linecap:round; stroke-linejoin:round;">
</g>
<g style="fill:#FFFFFF; fill-opacity:1.0; 
stroke:#FFFFFF; stroke-width:0; stroke-opacity:1; 
stroke-linecap:round; stroke-linejoin:round;">
<circle cx="3011.15" cy="4261.81" r="200" /> 
</g>
<g style="fill:#FFFFFF; fill-opacity:1.0; 
stroke:#FFFFFF; stroke-width:39.3701; stroke-opacity:1; 
stroke-linecap:round; stroke-linejoin:round;">
</g>
<g style="fill:#FFFFFF; fill-opacity:1.0; 
stroke:#FFFFFF; stroke-width:0; stroke-opacity:1; 
stroke-linecap:round; stroke-linejoin:round;">
<circle cx="2011.15" cy="4261.81" r="200" /> 
</g>
<g style="fill:#FFFFFF; fill-opacity:1.0; 
stroke:#FFFFFF; stroke-width:39.3701; stroke-opacity:1; 
stroke-linecap:round; stroke-linejoin:round;">
</g>
<g style="fill:#FFFFFF; fill-opacity:1.0; 
stroke:#FFFFFF; stroke-width:0; stroke-opacity:1; 
stroke-linecap:round; stroke-linejoin:round;">
<circle cx="18511.2" cy="2261.81" r="255.906" /> 
</g>
<g style="fill:#FFFFFF; fill-opacity:1.0; 
stroke:#FFFFFF; stroke-width:39.3701; stroke-opacity:1; 
stroke-linecap:round; stroke-linejoin:round;">
</g>
<g style="fill:#FFFFFF; fill-opacity:1.0; 
stroke:#FFFFFF; stroke-width:0; stroke-opacity:1; 
stroke-linecap:round; stroke-linejoin:round;">
<circle cx="16542.7" cy="2261.81" r="255.906" /> 
</g>
<g style="fill:#FFFFFF; fill-opacity:1.0; 
stroke:#FFFFFF; stroke-width:39.3701; stroke-opacity:1; 
stroke-linecap:round; stroke-linejoin:round;">
</g>
<g style="fill:#FFFFFF; fill-opacity:1.0; 
stroke:#FFFFFF; stroke-width:394; stroke-opacity:1; 
stroke-linecap:round; stroke-linejoin:round;">
</g>
<g style="fill:#FFFFFF; fill-opacity:0.0; 
stroke:#FFFFFF; stroke-width:394; stroke-opacity:1; 
stroke-linecap:round; stroke-linejoin:round;">
<path d="M15070 18155
L15070 17368
" />
<path d="M17432 18155
L17432 17368
" />
<path d="M16644 15911
L15857 15911
" />
</g>
<g style="fill:#FFFFFF; fill-opacity:1.0; 
stroke:#FFFFFF; stroke-width:0; stroke-opacity:1; 
stroke-linecap:round; stroke-linejoin:round;">
<circle cx="10011.2" cy="6761.81" r="200" /> 
</g>
<g style="fill:#FFFFFF; fill-opacity:1.0; 
stroke:#FFFFFF; stroke-width:39.3701; stroke-opacity:1; 
stroke-linecap:round; stroke-linejoin:round;">
</g>
<g style="fill:#FFFFFF; fill-opacity:1.0; 
stroke:#FFFFFF; stroke-width:0; stroke-opacity:1; 
stroke-linecap:round; stroke-linejoin:round;">
<circle cx="10011.2" cy="5761.81" r="200" /> 
</g>
<g style="fill:#FFFFFF; fill-opacity:1.0; 
stroke:#FFFFFF; stroke-width:39.3701; stroke-opacity:1; 
stroke-linecap:round; stroke-linejoin:round;">
</g>
<g style="fill:#FFFFFF; fill-opacity:1.0; 
stroke:#FFFFFF; stroke-width:0; stroke-opacity:1; 
stroke-linecap:round; stroke-linejoin:round;">
<circle cx="11011.2" cy="6761.81" r="200" /> 
</g>
<g style="fill:#FFFFFF; fill-opacity:1.0; 
stroke:#FFFFFF; stroke-width:39.3701; stroke-opacity:1; 
stroke-linecap:round; stroke-linejoin:round;">
</g>
<g style="fill:#FFFFFF; fill-opacity:1.0; 
stroke:#FFFFFF; stroke-width:0; stroke-opacity:1; 
stroke-linecap:round; stroke-linejoin:round;">
<circle cx="11011.2" cy="5761.81" r="200" /> 
</g>
<g style="fill:#FFFFFF; fill-opacity:1.0; 
stroke:#FFFFFF; stroke-width:39.3701; stroke-opacity:1; 
stroke-linecap:round; stroke-linejoin:round;">
</g>
<g style="fill:#FFFFFF; fill-opacity:1.0; 
stroke:#FFFFFF; stroke-width:0; stroke-opacity:1; 
stroke-linecap:round; stroke-linejoin:round;">
<circle cx="12011.2" cy="6761.81" r="200" /> 
</g>
<g style="fill:#FFFFFF; fill-opacity:1.0; 
stroke:#FFFFFF; stroke-width:39.3701; stroke-opacity:1; 
stroke-linecap:round; stroke-linejoin:round;">
</g>
<g style="fill:#FFFFFF; fill-opacity:1.0; 
stroke:#FFFFFF; stroke-width:0; stroke-opacity:1; 
stroke-linecap:round; stroke-linejoin:round;">
<circle cx="12011.2" cy="5761.81" r="200" /> 
</g>
<g style="fill:#FFFFFF; fill-opacity:1.0; 
stroke:#FFFFFF; stroke-width:39.3701; stroke-opacity:1; 
stroke-linecap:round; stroke-linejoin:round;">
</g>
<g style="fill:#FFFFFF; fill-opacity:1.0; 
stroke:#FFFFFF; stroke-width:0; stroke-opacity:1; 
stroke-linecap:round; stroke-linejoin:round;">
<circle cx="13761.2" cy="13011.8" r="197" /> 
</g>
<g style="fill:#FFFFFF; fill-opacity:1.0; 
stroke:#FFFFFF; stroke-width:39.3701; stroke-opacity:1; 
stroke-linecap:round; stroke-linejoin:round;">
</g>
<g style="fill:#FFFFFF; fill-opacity:1.0; 
stroke:#FFFFFF; stroke-width:0; stroke-opacity:1; 
stroke-linecap:round; stroke-linejoin:round;">
<circle cx="14761.2" cy="13011.8" r="197" /> 
</g>
<g style="fill:#FFFFFF; fill-opacity:1.0; 
stroke:#FFFFFF; stroke-width:39.3701; stroke-opacity:1; 
stroke-linecap:round; stroke-linejoin:round;">
</g>
<g style="fill:#FFFFFF; fill-opacity:1.0; 
stroke:#FFFFFF; stroke-width:0; stroke-opacity:1; 
stroke-linecap:round; stroke-linejoin:round;">
<circle cx="10011.2" cy="16261.8" r="200" /> 
</g>
<g style="fill:#FFFFFF; fill-opacity:1.0; 
stroke:#FFFFFF; stroke-width:39.3701; stroke-opacity:1; 
stroke-linecap:round; stroke-linejoin:round;">
</g>
<g style="fill:#FFFFFF; fill-opacity:1.0; 
stroke:#FFFFFF; stroke-width:0; stroke-opacity:1; 
stroke-linecap:round; stroke-linejoin:round;">
<circle cx="10011.2" cy="17261.8" r="200" /> 
</g>
<g style="fill:#FFFFFF; fill-opacity:1.0; 
stroke:#FFFFFF; stroke-width:39.3701; stroke-opacity:1; 
stroke-linecap:round; stroke-linejoin:round;">
</g>
<g style="fill:#FFFFFF; fill-opacity:1.0; 
stroke:#FFFFFF; stroke-width:0; stroke-opacity:1; 
stroke-linecap:round; stroke-linejoin:round;">
<circle cx="10011.2" cy="18261.8" r="200" /> 
</g>
<g style="fill:#FFFFFF; fill-opacity:1.0; 
stroke:#FFFFFF; stroke-width:39.3701; stroke-opacity:1; 
stroke-linecap:round; stroke-linejoin:round;">
</g>
<g style="fill:#FFFFFF; fill-opacity:1.0; 
stroke:#FFFFFF; stroke-width:0; stroke-opacity:1; 
stroke-linecap:round; stroke-linejoin:round;">
<circle cx="11011.2" cy="16261.8" r="200" /> 
</g>
<g style="fill:#FFFFFF; fill-opacity:1.0; 
stroke:#FFFFFF; stroke-width:39.3701; stroke-opacity:1; 
stroke-linecap:round; stroke-linejoin:round;">
</g>
<g style="fill:#FFFFFF; fill-opacity:1.0; 
stroke:#FFFFFF; stroke-width:0; stroke-opacity:1; 
stroke-linecap:round; stroke-linejoin:round;">
<circle cx="11011.2" cy="17261.8" r="200" /> 
</g>
<g style="fill:#FFFFFF; fill-opacity:1.0; 
stroke:#FFFFFF; stroke-width:39.3701; stroke-opacity:1; 
stroke-linecap:round; stroke-linejoin:round;">
</g>
<g style="fill:#FFFFFF; fill-opacity:1.0; 
stroke:#FFFFFF; stroke-width:0; stroke-opacity:1; 
stroke-linecap:round; stroke-linejoin:round;">
<circle cx="11011.2" cy="18261.8" r="200" /> 
</g>
<g style="fill:#FFFFFF; fill-opacity:1.0; 
stroke:#FFFFFF; stroke-width:39.3701; stroke-opacity:1; 
stroke-linecap:round; stroke-linejoin:round;">
</g>
<g style="fill:#FFFFFF; fill-opacity:1.0; 
stroke:#FFFFFF; stroke-width:0; stroke-opacity:1; 
stroke-linecap:round; stroke-linejoin:round;">
<circle cx="12011.2" cy="16261.8" r="200" /> 
</g>
<g style="fill:#FFFFFF; fill-opacity:1.0; 
stroke:#FFFFFF; stroke-width:39.3701; stroke-opacity:1; 
stroke-linecap:round; stroke-linejoin:round;">
</g>
<g style="fill:#FFFFFF; fill-opacity:1.0; 
stroke:#FFFFFF; stroke-width:0; stroke-opacity:1; 
stroke-linecap:round; stroke-linejoin:round;">
<circle cx="12011.2" cy="17261.8" r="200" /> 
</g>
<g style="fill:#FFFFFF; fill-opacity:1.0; 
stroke:#FFFFFF; stroke-width:39.3701; stroke-opacity:1; 
stroke-linecap:round; stroke-linejoin:round;">
</g>
<g style="fill:#FFFFFF; fill-opacity:1.0; 
stroke:#FFFFFF; stroke-width:0; stroke-opacity:1; 
stroke-linecap:round; stroke-linejoin:round;">
<circle cx="12011.2" cy="18261.8" r="200" /> 
</g>
<g style="fill:#FFFFFF; fill-opacity:1.0; 
stroke:#FFFFFF; stroke-width:39.3701; stroke-opacity:1; 
stroke-linecap:round; stroke-linejoin:round;">
</g>
<g style="fill:#FFFFFF; fill-opacity:1.0; 
stroke:#FFFFFF; stroke-width:0; stroke-opacity:1; 
stroke-linecap:round; stroke-linejoin:round;">
<circle cx="2011.15" cy="15761.8" r="200" /> 
</g>
<g style="fill:#FFFFFF; fill-opacity:1.0; 
stroke:#FFFFFF; stroke-width:39.3701; stroke-opacity:1; 
stroke-linecap:round; stroke-linejoin:round;">
</g>
<g style="fill:#FFFFFF; fill-opacity:1.0; 
stroke:#FFFFFF; stroke-width:0; stroke-opacity:1; 
stroke-linecap:round; stroke-linejoin:round;">
<circle cx="3011.15" cy="15761.8" r="200" /> 
</g>
<g style="fill:#FFFFFF; fill-opacity:1.0; 
stroke:#FFFFFF; stroke-width:39.3701; stroke-opacity:1; 
stroke-linecap:round; stroke-linejoin:round;">
</g>
<g style="fill:#FFFFFF; fill-opacity:1.0; 
stroke:#FFFFFF; stroke-width:0; stroke-opacity:1; 
stroke-linecap:round; stroke-linejoin:round;">
<circle cx="4011.15" cy="15761.8" r="200" /> 
</g>
<g style="fill:#FFFFFF; fill-opacity:1.0; 
stroke:#FFFFFF; stroke-width:39.3701; stroke-opacity:1; 
stroke-linecap:round; stroke-linejoin:round;">
</g>
<g style="fill:#FFFFFF; fill-opacity:1.0; 
stroke:#FFFFFF; stroke-width:0; stroke-opacity:1; 
stroke-linecap:round; stroke-linejoin:round;">
<circle cx="5011.15" cy="15761.8" r="200" /> 
</g>
<g style="fill:#FFFFFF; fill-opacity:1.0; 
stroke:#FFFFFF; stroke-width:39.3701; stroke-opacity:1; 
stroke-linecap:round; stroke-linejoin:round;">
</g>
<g style="fill:#FFFFFF; fill-opacity:1.0; 
stroke:#FFFFFF; stroke-width:0; stroke-opacity:1; 
stroke-linecap:round; stroke-linejoin:round;">
<circle cx="6011.15" cy="15761.8" r="200" /> 
</g>
<g style="fill:#FFFFFF; fill-opacity:1.0; 
stroke:#FFFFFF; stroke-width:39.3701; stroke-opacity:1; 
stroke-linecap:round; stroke-linejoin:round;">
</g>
<g style="fill:#FFFFFF; fill-opacity:1.0; 
stroke:#FFFFFF; stroke-width:0; stroke-opacity:1; 
stroke-linecap:round; stroke-linejoin:round;">
<circle cx="7011.15" cy="15761.8" r="200" /> 
</g>
<g style="fill:#FFFFFF; fill-opacity:1.0; 
stroke:#FFFFFF; stroke-width:39.3701; stroke-opacity:1; 
stroke-linecap:round; stroke-linejoin:round;">
</g>
<g style="fill:#FFFFFF; fill-opacity:1.0; 
stroke:#FFFFFF; stroke-width:0; stroke-opacity:1; 
stroke-linecap:round; stroke-linejoin:round;">
<circle cx="14511.2" cy="2261.81" r="255.906" /> 
</g>
<g style="fill:#FFFFFF; fill-opacity:1.0; 
stroke:#FFFFFF; stroke-width:39.3701; stroke-opacity:1; 
stroke-linecap:round; stroke-linejoin:round;">
</g>
<g style="fill:#FFFFFF; fill-opacity:1.0; 
stroke:#FFFFFF; stroke-width:0; stroke-opacity:1; 
stroke-linecap:round; stroke-linejoin:round;">
<circle cx="12542.7" cy="2261.81" r="255.906" /> 
</g>
<g style="fill:#FFFFFF; fill-opacity:1.0; 
stroke:#FFFFFF; stroke-width:39.3701; stroke-opacity:1; 
stroke-linecap:round; stroke-linejoin:round;">
</g>
<g style="fill:#FFFFFF; fill-opacity:1.0; 
stroke:#FFFFFF; stroke-width:0; stroke-opacity:1; 
stroke-linecap:round; stroke-linejoin:round;">
<circle cx="3011.15" cy="8261.81" r="200" /> 
</g>
<g style="fill:#FFFFFF; fill-opacity:1.0; 
stroke:#FFFFFF; stroke-width:39.3701; stroke-opacity:1; 
stroke-linecap:round; stroke-linejoin:round;">
</g>
<g style="fill:#FFFFFF; fill-opacity:1.0; 
stroke:#FFFFFF; stroke-width:0; stroke-opacity:1; 
stroke-linecap:round; stroke-linejoin:round;">
<circle cx="2011.15" cy="8261.81" r="200" /> 
</g>
<g style="fill:#FFFFFF; fill-opacity:1.0; 
stroke:#FFFFFF; stroke-width:39.3701; stroke-opacity:1; 
stroke-linecap:round; stroke-linejoin:round;">
</g>
<g style="fill:#FFFFFF; fill-opacity:1.0; 
stroke:#FFFFFF; stroke-width:0; stroke-opacity:1; 
stroke-linecap:round; stroke-linejoin:round;">
<circle cx="3011.15" cy="9261.81" r="200" /> 
</g>
<g style="fill:#FFFFFF; fill-opacity:1.0; 
stroke:#FFFFFF; stroke-width:39.3701; stroke-opacity:1; 
stroke-linecap:round; stroke-linejoin:round;">
</g>
<g style="fill:#FFFFFF; fill-opacity:1.0; 
stroke:#FFFFFF; stroke-width:0; stroke-opacity:1; 
stroke-linecap:round; stroke-linejoin:round;">
<circle cx="2011.15" cy="9261.81" r="200" /> 
</g>
<g style="fill:#FFFFFF; fill-opacity:1.0; 
stroke:#FFFFFF; stroke-width:39.3701; stroke-opacity:1; 
stroke-linecap:round; stroke-linejoin:round;">
</g>
<g style="fill:#FFFFFF; fill-opacity:1.0; 
stroke:#FFFFFF; stroke-width:0; stroke-opacity:1; 
stroke-linecap:round; stroke-linejoin:round;">
<circle cx="3011.15" cy="10261.8" r="200" /> 
</g>
<g style="fill:#FFFFFF; fill-opacity:1.0; 
stroke:#FFFFFF; stroke-width:39.3701; stroke-opacity:1; 
stroke-linecap:round; stroke-linejoin:round;">
</g>
<g style="fill:#FFFFFF; fill-opacity:1.0; 
stroke:#FFFFFF; stroke-width:0; stroke-opacity:1; 
stroke-linecap:round; stroke-linejoin:round;">
<circle cx="2011.15" cy="10261.8" r="200" /> 
</g>
<g style="fill:#FFFFFF; fill-opacity:1.0; 
stroke:#FFFFFF; stroke-width:39.3701; stroke-opacity:1; 
stroke-linecap:round; stroke-linejoin:round;">
</g>
<g style="fill:#FFFFFF; fill-opacity:1.0; 
stroke:#FFFFFF; stroke-width:0; stroke-opacity:1; 
stroke-linecap:round; stroke-linejoin:round;">
<circle cx="3011.15" cy="11261.8" r="200" /> 
</g>
<g style="fill:#FFFFFF; fill-opacity:1.0; 
stroke:#FFFFFF; stroke-width:39.3701; stroke-opacity:1; 
stroke-linecap:round; stroke-linejoin:round;">
</g>
<g style="fill:#FFFFFF; fill-opacity:1.0; 
stroke:#FFFFFF; stroke-width:0; stroke-opacity:1; 
stroke-linecap:round; stroke-linejoin:round;">
<circle cx="2011.15" cy="11261.8" r="200" /> 
</g>
<g style="fill:#FFFFFF; fill-opacity:1.0; 
stroke:#FFFFFF; stroke-width:39.3701; stroke-opacity:1; 
stroke-linecap:round; stroke-linejoin:round;">
</g>
<g style="fill:#000000; fill-opacity:1.0; 
stroke:#000000; stroke-width:39.3701; stroke-opacity:1; 
stroke-linecap:round; stroke-linejoin:round;">
</g> 
</svg>
